<svg xmlns="http://www.w3.org/2000/svg" width="75" height="75" viewBox="0 0 75 75"><g transform="translate(-1277 -7159.285)"><rect width="75" height="75" rx="37" transform="translate(1277 7159.285)" fill="#d6e9ea"/><path d="M23.118,0A23.118,23.118,0,1,0,46.235,23.118,23.129,23.129,0,0,0,23.118,0Zm0,1.445a21.568,21.568,0,0,1,14.389,5.49H8.727a21.571,21.571,0,0,1,14.391-5.49ZM9.274,8.38H36.961L23.118,36.069,9.274,8.38Zm-2.339.347V37.508a21.6,21.6,0,0,1,0-28.778Zm32.365,0a21.6,21.6,0,0,1,0,28.78ZM8.38,9.825,22.4,37.855H8.38Zm29.475,0v28.03H23.84L37.857,9.825ZM8.733,39.3H37.507a21.6,21.6,0,0,1-28.776,0Z" transform="translate(1291.383 7173.667)" fill="#62beb7"/></g></svg>