<svg xmlns="http://www.w3.org/2000/svg" xmlns:xlink="http://www.w3.org/1999/xlink" width="679.547" height="410.852" viewBox="0 0 679.547 410.852"><defs><linearGradient id="a" y1="0.5" x2="1" y2="0.5" gradientUnits="objectBoundingBox"><stop offset="0" stop-color="#62beb7"/><stop offset="0.993" stop-color="#c9f9b8"/><stop offset="1" stop-color="#38b8fc"/></linearGradient><filter id="b" x="68.855" y="216.321" width="151.348" height="147.612" filterUnits="userSpaceOnUse"><feOffset dx="4" dy="4" input="SourceAlpha"/><feGaussianBlur stdDeviation="6" result="c"/><feFlood flood-opacity="0.22"/><feComposite operator="in" in2="c"/><feComposite in="SourceGraphic"/></filter><filter id="d" x="123.299" y="238.248" width="54.351" height="54.352" filterUnits="userSpaceOnUse"><feOffset dy="3" input="SourceAlpha"/><feGaussianBlur stdDeviation="3" result="e"/><feFlood flood-opacity="0.161"/><feComposite operator="in" in2="e"/><feComposite in="SourceGraphic"/></filter><filter id="g" x="311.271" y="228.587" width="54.351" height="54.352" filterUnits="userSpaceOnUse"><feOffset dy="3" input="SourceAlpha"/><feGaussianBlur stdDeviation="3" result="h"/><feFlood flood-opacity="0.161"/><feComposite operator="in" in2="h"/><feComposite in="SourceGraphic"/></filter><filter id="j" x="458.717" y="46.458" width="54.351" height="54.352" filterUnits="userSpaceOnUse"><feOffset dy="3" input="SourceAlpha"/><feGaussianBlur stdDeviation="3" result="k"/><feFlood flood-opacity="0.161"/><feComposite operator="in" in2="k"/><feComposite in="SourceGraphic"/></filter></defs><g transform="translate(-1028.453 -7562.037)"><rect width="71" height="71" rx="13" transform="translate(1299 7718.285)" fill="#eaebf1"/><rect width="71" height="71" rx="13" transform="translate(1468 7718.285)" fill="#eaebf1"/><rect width="71" height="71" rx="13" transform="translate(1552 7718.285)" fill="#eaebf1"/><rect width="70" height="71" rx="13" transform="translate(1556 7636.285)" fill="#eaebf1"/><rect width="71" height="71" rx="13" transform="translate(1637 7636.285)" fill="#eaebf1"/><rect width="70" height="71" rx="13" transform="translate(1384 7636.285)" fill="#eaebf1"/><rect width="71" height="71" rx="13" transform="translate(1299 7805.285)" fill="#eaebf1"/><rect width="70" height="71" rx="13" transform="translate(1384 7805.285)" fill="#eaebf1"/><rect width="70" height="70" rx="13" transform="translate(1384 7886.285)" fill="#eaebf1"/><rect width="71" height="71" rx="13" transform="translate(1468 7805.285)" fill="#eaebf1"/><rect width="71" height="70" rx="13" transform="translate(1552 7886.285)" fill="#eaebf1"/><rect width="71" height="71" rx="13" transform="translate(1637 7805.285)" fill="#eaebf1"/><g transform="matrix(0.875, -0.485, 0.485, 0.875, 21058.377, 15741.885)"><path d="M230.5,400.453c3.046,6.246,8.97,15.928,19.84,22.427,17.074,10.21,36.375,7.318,54.774,2.588,74.995-19.279,81.23-49.456,120.762-49.168,38.321.279,70.564,28.584,90.572,46.148,33.408,29.328,28.886,44.334,49.6,51.755,34.587,12.393,77.583-18.563,133.27-58.656,49.249-35.458,60.3-52.916,86.259-53.049,31.823-.163,58.032,26.012,75.476,48.736" transform="translate(-13920.934 -16951.291)" fill="none" stroke="#62beb7" stroke-miterlimit="10" stroke-width="4" stroke-dasharray="12 20"/><g transform="translate(-13710.5 -16580.633)"><ellipse cx="14.819" cy="14.577" rx="14.819" ry="14.577" transform="translate(0 0)" fill="#62beb7" opacity="0.39"/><circle cx="2.672" cy="2.672" r="2.672" transform="translate(12.147 12.147)" fill="#62beb7"/></g><g transform="translate(-13068.161 -16543.219)"><circle cx="14.819" cy="14.819" r="14.819" transform="translate(0 0)" fill="#62beb7" opacity="0.39"/><circle cx="2.672" cy="2.672" r="2.672" transform="translate(12.147 12.147)" fill="#62beb7"/></g><g transform="matrix(0.87, 0.48, -0.48, 0.87, -13552.9, -16864.96)" filter="url(#b)"><path d="M25.288,14.018c22.369-5.64,53.44-25.8,63.344-4.373,5.228,9.963,5.648,26.378,3.382,37.238-2.483,11.424-7.652,17.29-18.622,19.154-21.786,3.227-61.71,5.431-70.286-16.944-4.738-10.78-3.57-20.78.254-25.733C7.4,17.892,14.09,17.475,25.288,14.018Z" transform="matrix(0.78, -0.63, 0.63, 0.78, 82.86, 289.05)" fill="url(#a)"/></g><g transform="matrix(0.87, 0.48, -0.48, 0.87, -13552.9, -16864.96)" filter="url(#d)"><ellipse cx="13.37" cy="13.37" rx="13.37" ry="13.37" transform="matrix(0.87, -0.48, 0.48, 0.87, 132.3, 257.21)" fill="#fff"/></g><g transform="translate(-13555.668 -16567.611)"><rect width="14.577" height="1.944" rx="0.972" transform="translate(3.887 10.307) rotate(-45)" fill="#62beb7"/><rect width="7.288" height="1.944" rx="0.972" transform="translate(1.374 5.036) rotate(45)" fill="#62beb7"/></g><path d="M43.388.8c9.654-2.132,12.994.233,15.988,4.254,2.843,4.067,5.684,9.566,9.826,15.418,8.283,11.7,17.977,14.041,19.018,19.31,1.069,5.193-.865,10.393-7.541,17.062A50.956,50.956,0,0,1,48.813,70.392c-13.411.861-38.687-6.958-45.371-17.31-7.206-10.156-2.294-23.424,7.3-33.326C20.232,9.638,34.4,2.887,43.388.8Z" transform="matrix(0.883, -0.469, 0.469, 0.883, -13425.488, -16507.566)" fill="url(#a)"/><g transform="matrix(0.87, 0.48, -0.48, 0.87, -13552.9, -16864.96)" filter="url(#g)"><ellipse cx="13.37" cy="13.37" rx="13.37" ry="13.37" transform="matrix(0.87, -0.48, 0.48, 0.87, 320.27, 247.55)" fill="#fff"/></g><g transform="translate(-13387.211 -16485.158)"><rect width="14.577" height="1.944" rx="0.972" transform="translate(3.887 10.307) rotate(-45)" fill="#62beb7"/><rect width="7.288" height="1.944" rx="0.972" transform="translate(1.374 5.036) rotate(45)" fill="#62beb7"/></g><path d="M212.505,329.2a63.629,63.629,0,0,1,34.436,11.359c8.409,6.091,12.773,13.175,12.168,20.242-.61,7.136-5.935,13.46-13.256,19.511a86.335,86.335,0,0,1-26.965,14.893c-19.825,7.006-39.6-2.083-45.98-24.191C166.5,349.039,184.41,327.747,212.505,329.2Z" transform="translate(-13400.125 -16929.262)" fill="url(#a)"/><g transform="matrix(0.87, 0.48, -0.48, 0.87, -13552.9, -16864.96)" filter="url(#j)"><ellipse cx="13.37" cy="13.37" rx="13.37" ry="13.37" transform="matrix(0.87, -0.48, 0.48, 0.87, 467.72, 65.42)" fill="#fff"/></g></g></g></svg>