<svg xmlns="http://www.w3.org/2000/svg" xmlns:xlink="http://www.w3.org/1999/xlink" width="1532.09" height="523" viewBox="0 0 1532.09 523"><defs><clipPath id="a"><rect width="88" height="88"/></clipPath><clipPath id="b"><rect width="79" height="79"/></clipPath><clipPath id="c"><rect width="79" height="79" transform="translate(-0.297)"/></clipPath></defs><g transform="translate(-194.705 -4841)"><text transform="translate(251.295 5010)" fill="#181919" font-size="24" font-family="Gilroy-Medium, Gilroy" font-weight="500" opacity="0.6"><tspan x="-41.028" y="0">Phase 1</tspan></text><text transform="translate(597 5010)" fill="#181919" font-size="24" font-family="Gilroy-Medium, Gilroy" font-weight="500" opacity="0.6"><tspan x="0" y="0">Phase 2</tspan></text><text transform="translate(1459 5010)" fill="#181919" font-size="24" font-family="Gilroy-Medium, Gilroy" font-weight="500" opacity="0.6"><tspan x="0" y="0">Phase 4</tspan></text><text transform="translate(934 5010)" fill="#181919" font-size="24" font-family="Gilroy-Medium, Gilroy" font-weight="500" opacity="0.6"><tspan x="0" y="0">Phase 3</tspan></text><text transform="translate(210.295 5056)" fill="#181919" font-size="26" font-family="Gilroy-SemiBold, Gilroy" font-weight="600"><tspan x="0" y="0">Main screens designed</tspan></text><text transform="translate(597 5056)" fill="#181919" font-size="26" font-family="Gilroy-SemiBold, Gilroy" font-weight="600"><tspan x="0" y="0">Presentable content</tspan></text><text transform="translate(1459 5056)" fill="#181919" font-size="26" font-family="Gilroy-SemiBold, Gilroy" font-weight="600"><tspan x="0" y="0">Pre-MVP Package</tspan></text><text transform="translate(934 5056)" fill="#181919" font-size="26" font-family="Gilroy-SemiBold, Gilroy" font-weight="600"><tspan x="0" y="0">Development-ready files</tspan></text><text transform="translate(597 5233)" fill="#181919" font-size="18" font-family="Gilroy-Medium, Gilroy" font-weight="500" opacity="0.6"><tspan x="0" y="17">The assets we design are </tspan><tspan x="0" y="51">ready for public display, can </tspan><tspan x="0" y="85">be included in your pitch </tspan><tspan x="0" y="119">decks, whitepapers, etc.</tspan></text><text transform="translate(210.295 5233)" fill="#181919" font-size="18" font-family="Gilroy-Medium, Gilroy" font-weight="500" opacity="0.6"><tspan x="0" y="17">Beautifully designed sections of your </tspan><tspan x="0" y="51">digital product interface, which can </tspan><tspan x="0" y="85">be demoed to shareholders and </tspan><tspan x="0" y="119">investors before production.</tspan></text><text transform="translate(1459 5233)" fill="#181919" font-size="18" font-family="Gilroy-Medium, Gilroy" font-weight="500" opacity="0.6"><tspan x="0" y="17">The elements we design </tspan><tspan x="0" y="51">can be easily translated </tspan><tspan x="0" y="85">into a real product MVP.</tspan></text><text transform="translate(934 5233)" fill="#181919" font-size="18" font-family="Gilroy-Medium, Gilroy" font-weight="500" opacity="0.6"><tspan x="0" y="17">We equip the concept with a simple UI kit that allows </tspan><tspan x="0" y="51">you to experiment with colors and typography during </tspan><tspan x="0" y="85">the production phase.</tspan></text><line x2="1501" transform="translate(210.5 5156.5)" fill="none" stroke="#000" stroke-linecap="round" stroke-width="2" stroke-dasharray="15 20" opacity="0.3"/><g transform="translate(208.58 4845.942)"><path d="M49.285,13.714l.461.769H74.722v14.6a4.4,4.4,0,0,1,.615.538c.077,0,.077.077.154.077V13.714Zm-47.571,0V72.889h.768V14.483H30.149l.461-.769ZM74.722,61.746V72.121H1.714v.768H75.491V61.131C75.414,61.208,74.722,61.746,74.722,61.746Z" transform="translate(0 4.02)"/><path d="M39.314,17.143l.384.769H61.755v-.769Z" transform="translate(12.968 5.203)"/><path d="M37.542,3.517,10.183,47.706H41.308c0,.231-.077.538-.077.768H8.8L37.542,2.057,54.834,29.8c-.307.077-.615.154-.845.231Z" transform="translate(2.444 0)"/><path d="M24.572,57.143v6.917h12.3V57.143ZM36.1,63.291H25.34v-5.38H36.1Z" transform="translate(7.883 18.998)"/><path d="M49.42,61.714H17.143v.769H49.42Z" transform="translate(5.321 20.575)"/><path d="M2.286,17.143v.769h24.9l.461-.769Z" transform="translate(0.197 5.203)"/><path d="M9.7,45.961l-.615.384.538.615.692-.384Zm18.828-6.455-11.6,21.288L13.7,52.57l-.307-.692-.692.384.307.692,3.842,9.606,12.6-23.132h-.922Z" transform="translate(2.542 12.889)"/><path d="M15.124,50.2l-.692.384L8.207,54.276l-3.151-5.3,6.225-3.689.692-.384-.538-.615-.615.384L4.057,48.743l3.919,6.609,6.763-4,.692-.384Z" transform="translate(0.808 14.564)"/><path d="M31.528,38.914l-.384.768H6.014l5.38,6.455-.615.384L4.4,38.914Z" transform="translate(0.926 12.711)"/><path d="M53.552,63.675a20.98,20.98,0,1,0-20.98-20.98A20.98,20.98,0,0,0,53.552,63.675Z" transform="translate(10.642 6.779)" fill="#fde08c"/></g><g transform="translate(597 4841)" clip-path="url(#a)"><path d="M.786,15.714H0V88H.786Z"/><path d="M48.714,79.357h-.786V88h.786Z"/><path d="M47.929,87.214H.786V88H47.929Z"/><path d="M17.286,15.714H0V16.5H17.286Z"/><path d="M17.286,20.428H0v.786H17.286Z"/><path d="M18.071,7.857h-.786V80.143h.786Z"/><path d="M66,7.857H17.286v.786H66Z"/><path d="M65.214,79.357H18.071v.786H65.214Z"/><path d="M66,7.857v43.45l-.786.55v-44Z"/><path d="M65.214,61.443l.786.471V80.143h-.786Z"/><path d="M65.214,12.571H18.071v.786H65.214Z"/><path d="M17.286,80.143V24.357H3.929V84.072H44.786V80.143Z" fill="#644a73"/><path d="M50.207.943l8.486,18.543,15.4,10.057-15.4,10.136L50.207,58.143,41.8,39.679,26.321,29.543,41.8,19.486Z" fill="#644a73"/><path d="M87.843,56.336,78.1,49.971,72.757,38.264a.442.442,0,0,0-.707,0L66.707,49.971,66,50.364l-.786.55-8.25,5.421a.393.393,0,0,0,0,.629l8.25,5.421.786.55.707.471L72.05,75.114a.432.432,0,0,0,.393.236c.157,0,.314-.079.314-.236L78.1,63.407l9.743-6.364A.408.408,0,0,0,88,56.729C88,56.571,87.921,56.336,87.843,56.336ZM77.55,62.7l-.157.157-5.028,11-5.029-11a.169.169,0,0,0-.157-.157L66,61.914l-.786-.55-7.307-4.793,7.307-4.714.786-.55,1.257-.786.157-.157,5.029-11,5.029,11a.169.169,0,0,0,.157.157l9.35,6.129Z"/></g><g transform="translate(934 4850)" clip-path="url(#b)"><path d="M62.2,45.086a2.508,2.508,0,0,0,.705.141V62.085H20.514l.423-.705H62.2Z" transform="translate(4.808 10.567)"/><path d="M39.232,21.607,18.354,36.42H1.848V13.848H13.839v-.705H1.143V69.571H17.578l-.423-.705H1.848V37.125H18.565L39.444,22.312h28v-.705Z" transform="translate(0.268 3.08)"/><path d="M52.986,21.714h-7.97a7.762,7.762,0,0,0-2.328,15.165c.212.071.494.141.705.212a6.05,6.05,0,0,0,1.622.141h7.97a.333.333,0,0,0,.353-.353V22.067A.333.333,0,0,0,52.986,21.714Zm-7.97,14.813a7.054,7.054,0,1,1,0-14.107h7.618V36.527Z" transform="translate(8.732 5.089)"/><path d="M52.986,33.714h-7.97a11.586,11.586,0,0,0-1.622.141c-.282.071-.494.141-.705.212a7.765,7.765,0,0,0,0,14.813c.212.071.494.141.705.212a6.05,6.05,0,0,0,1.622.141h7.97a.333.333,0,0,0,.353-.353V34.067A.333.333,0,0,0,52.986,33.714Z" transform="translate(8.732 7.902)" fill="#325344"/><path d="M52.986,45.714h-7.97a11.586,11.586,0,0,0-1.622.141c-.282.071-.494.141-.705.212a7.762,7.762,0,0,0,2.328,15.165h.212a8.159,8.159,0,0,0,8.112-8.112V46.067A.333.333,0,0,0,52.986,45.714Zm-.353.705v6.7a7.405,7.405,0,0,1-7.406,7.406h-.212a7.054,7.054,0,1,1,0-14.107Z" transform="translate(8.732 10.714)"/><path d="M58.037,21.714H50.067a.333.333,0,0,0-.353.353V36.879a.333.333,0,0,0,.353.353h7.971a8.131,8.131,0,0,0,1.834-.212A7.657,7.657,0,0,0,65.8,29.473,7.737,7.737,0,0,0,58.037,21.714Z" transform="translate(11.652 5.089)" fill="#325344"/><path d="M59.845,34.195a7.377,7.377,0,0,0-2.539-.423,7.777,7.777,0,0,0-1.27.141c-.212.071-.494.071-.705.141a4.083,4.083,0,0,0-.987.353,7.137,7.137,0,0,0-3.95,4.021,6.212,6.212,0,0,0-.353,1.058,7.455,7.455,0,0,0,0,3.527,6.212,6.212,0,0,0,.353,1.058,7.477,7.477,0,0,0,4.937,4.373,2.508,2.508,0,0,0,.705.141,7.672,7.672,0,0,0,1.27.07,7.448,7.448,0,0,0,2.539-14.46ZM57.305,48.02a7.764,7.764,0,0,1-1.27-.141,2.507,2.507,0,0,1-.705-.141,6.788,6.788,0,0,1,0-12.979,2.5,2.5,0,0,1,.705-.141,7.764,7.764,0,0,1,1.27-.141,6.771,6.771,0,0,1,0,13.543Z" transform="translate(11.679 7.915)"/><path d="M23.92,49.064V42.857H16.161v.071l.071,6.207-9.946-1.2L15.526,61.9l.494.705,4.232,6.348,4.091-6.348.423-.705,9.029-14.107ZM20.181,67.686,7.414,48.782l9.452,1.2L16.8,43.562h6.419l.071,6.348,9.381-1.2Z" transform="translate(1.473 10.045)"/><path d="M13.17,16H4V35.75h9.17Z" transform="translate(0.938 3.75)" fill="#325344"/><path d="M21.848.571h-.705v12.7h.705Z" transform="translate(4.955 0.134)"/><path d="M61.643,1.277V.571H23.413l-12.555,12.7v26.1h.705V13.973h12.7v-.705H11.915L23.695,1.277Z" transform="translate(2.545 0.134)"/><path d="M52.134.571h-.705V24.554h.705Z" transform="translate(12.054 0.134)"/><path d="M1.848,41.886H1.143V62.129h.705Z" transform="translate(0.268 9.817)"/></g><g transform="translate(1459.297 4850)" clip-path="url(#c)"><path d="M.705,11.429H0V76.321H.705Z" transform="translate(0 2.679)"/><path d="M15.518,11.429l-.705.705H0v-.705Z" transform="translate(0 2.679)"/><path d="M42.893,63.429H.572v.705H42.893Z" transform="translate(0.134 14.866)"/><path d="M33.54,24.063a.333.333,0,0,0-.353.353V48.045h.705V24.768h6.772v-.705ZM33.4,68.923A20.526,20.526,0,0,1,13.014,50.866h-.705A21.388,21.388,0,0,0,33.4,69.629h.494a21.927,21.927,0,0,0,4.938-.705v1.693H3.563V18.42h9.875v-.705H2.857V71.321H39.536V68.006a20.991,20.991,0,0,1-5.643.917Z" transform="translate(0.67 4.152)"/><path d="M54.884,7.944,51.287.114,47.76,7.944l-4.3,2.821L41.2,12.246,45.362,15l2.4,1.552,3.527,7.83,3.6-7.83,6.56-4.3Zm-.353,8.041-.141.141-.071.212-2.962,6.419-2.892-6.419-.071-.212-.212-.141-3.174-2.045L42.47,12.317l1.34-.846,4.3-2.821.141-.141.071-.212,2.892-6.419L54.178,8.3l.071.212.141.141,5.643,3.738Z" transform="translate(9.656 0.027)"/><path d="M35.563,57.714h-.705v7.759h.705Z" transform="translate(8.17 13.527)"/><path d="M52.862,42.286H10.4v.705A21.272,21.272,0,0,0,31.631,63.87,20.711,20.711,0,0,0,38.9,62.6c.071,0,.141-.071.282-.071a21.773,21.773,0,0,0,5.713-3.245,7.473,7.473,0,0,0,.846-.705,20.954,20.954,0,0,0,7.124-15.518l-.705-.071A20.506,20.506,0,0,1,44.61,58.509a10.376,10.376,0,0,1-.917.705,20.644,20.644,0,0,1-4.585,2.539c-.07,0-.141.071-.212.071a21.41,21.41,0,0,1-6.771,1.34h-.494A20.565,20.565,0,0,1,11.105,42.991H52.862Z" transform="translate(2.437 9.911)"/><path d="M13.973,14.857H.572v.705h13.4Z" transform="translate(0.134 3.482)"/><path d="M52.406,28.147a21.157,21.157,0,0,0,1.058-6.7,19.87,19.87,0,0,0-1.058-6.489,11.692,11.692,0,0,0-.423-1.129l-2.539-1.622,1.34-.846c-.141-.212-.212-.423-.353-.635A20.956,20.956,0,0,0,32.3.286a21.174,21.174,0,0,0-1.058,42.321V52.835h.705V28.853H75.683v39.5H44.436a10.377,10.377,0,0,1-.917.705h32.87V28.147Z" transform="translate(2.612 0.067)" fill="#35326b"/></g><path d="M16527.584,11168.767l-16.27,21.68,16.27,21.572,16.32-21.572Z" transform="translate(-16316.609 -6033.767)" fill="#fde08c"/><path d="M16527.584,11168.767l-16.27,21.68,16.27,21.572,16.32-21.572Z" transform="translate(-15577.314 -6033.767)" fill="#325344"/><path d="M16527.584,11168.767l-16.27,21.68,16.27,21.572,16.32-21.572Z" transform="translate(-15914.314 -6033.767)" fill="#644a73"/><path d="M16527.584,11168.767l-16.27,21.68,16.27,21.572,16.32-21.572Z" transform="translate(-15052.314 -6033.767)" fill="#35326b"/><path d="M16527.584,11168.767l-16.27,21.68,16.27,21.572,16.32-21.572Z" transform="translate(-14817.109 -6033.767)"/></g></svg>