<svg xmlns="http://www.w3.org/2000/svg" width="92" height="92" viewBox="0 0 92 92"><g transform="translate(-1106 -8462)"><g transform="translate(1106 8462)" fill="none" stroke="#000" stroke-width="3"><circle cx="46" cy="46" r="46" stroke="none"/><circle cx="46" cy="46" r="44.5" fill="none"/></g><path d="M16.195,9.254V0H3.47A3.47,3.47,0,0,0,0,3.47V33.547a3.471,3.471,0,0,0,3.47,3.47H24.292a3.47,3.47,0,0,0,3.47-3.47V11.568H18.573A2.326,2.326,0,0,1,16.195,9.254ZM11.141,25.579a1.448,1.448,0,0,1,0,2.047,1.413,1.413,0,0,1-1.019.426A1.443,1.443,0,0,1,9.1,27.629l-3.47-3.47a1.448,1.448,0,0,1,0-2.047l3.47-3.47a1.447,1.447,0,0,1,2.045,2.047L8.7,23.136Zm10.989-3.47a1.448,1.448,0,0,1,0,2.047l-3.47,3.47a1.413,1.413,0,0,1-1.019.426,1.446,1.446,0,0,1-1.022-2.469l2.447-2.447-2.448-2.447a1.447,1.447,0,1,1,2.045-2.047ZM18.508,0V9.254h9.254Z" transform="translate(1138 8489)" stroke="#fff" stroke-width="1"/></g></svg>