<svg xmlns="http://www.w3.org/2000/svg" width="92" height="92" viewBox="0 0 92 92"><g transform="translate(-722 -8462)"><g transform="translate(722 8462)" fill="none" stroke="#000" stroke-width="3"><circle cx="46" cy="46" r="46" stroke="none"/><circle cx="46" cy="46" r="44.5" fill="none"/></g><path d="M34.048,3.486a4.425,4.425,0,0,1,0,6.257l-3.9,3.9L22.272,5.765l3.9-3.9a4.43,4.43,0,0,1,6.261,0ZM3.1,24.939,20.711,7.328,28.588,15.2,10.974,32.81A3.921,3.921,0,0,1,9.3,33.8L2.114,35.851a1.568,1.568,0,0,1-1.628-.484A1.52,1.52,0,0,1,.064,33.8l2.054-7.187A3.831,3.831,0,0,1,3.1,24.939ZM17.235,7.677,7.146,17.766,1.106,11.72a3.313,3.313,0,0,1,0-4.688L6.5,1.638a3.313,3.313,0,0,1,4.688,0L12.556,3c-.021.02-.048.041-.069.064L8.065,7.491A1.1,1.1,0,0,0,9.626,9.052l4.423-4.422c.021-.022-.014-.046.062-.07ZM31.353,21.8a.561.561,0,0,0-.069.062l-4.423,4.423a1.1,1.1,0,1,0,1.562,1.562l4.423-4.423c.021-.083-.014-.048.062-.069l1.368,1.368a3.316,3.316,0,0,1,0,4.685l-5.4,5.4a3.316,3.316,0,0,1-4.685,0l-6.047-6.04L28.236,18.679Z" transform="translate(749.5 8489.429)" stroke="#fff" stroke-width="1"/></g></svg>