<svg xmlns="http://www.w3.org/2000/svg" width="92" height="92" viewBox="0 0 92 92"><g transform="translate(-1488 -8462)"><g transform="translate(1488 8462)" fill="none" stroke="#000" stroke-width="3"><circle cx="46" cy="46" r="46" stroke="none"/><circle cx="46" cy="46" r="44.5" fill="none"/></g><path d="M11.762,23.523h.882V24.7a1.173,1.173,0,0,0,1.176,1.176h2.94A1.173,1.173,0,0,0,17.936,24.7V23.523h.882a2.357,2.357,0,0,0,2.352-2.352V4.7a2.357,2.357,0,0,0-2.352-2.352V1.176A1.171,1.171,0,0,0,17.642,0h-4.7a1.171,1.171,0,0,0-1.176,1.176V2.352A2.358,2.358,0,0,0,9.409,4.7V21.171A2.359,2.359,0,0,0,11.762,23.523Zm22.347,9.409h-.092A14.093,14.093,0,0,0,23.523,9.409v4.7a9.409,9.409,0,0,1,0,18.819H3.528A3.529,3.529,0,0,0,0,36.461a1.171,1.171,0,0,0,1.176,1.176H36.461a1.173,1.173,0,0,0,1.176-1.176A3.529,3.529,0,0,0,34.109,32.933ZM7.645,30.58h15.29a.592.592,0,0,0,.588-.588V28.816a.592.592,0,0,0-.588-.588H7.645a.591.591,0,0,0-.588.588v1.176A.591.591,0,0,0,7.645,30.58Z" transform="translate(1515 8487)" stroke="#fff" stroke-width="1"/></g></svg>