<svg xmlns="http://www.w3.org/2000/svg" width="92" height="92" viewBox="0 0 92 92"><g transform="translate(-339 -8462)"><g transform="translate(339 8462)" fill="none" stroke="#000" stroke-width="3"><circle cx="46" cy="46" r="46" stroke="none"/><circle cx="46" cy="46" r="44.5" fill="none"/></g><path d="M5.2,14.625H4.5A1.125,1.125,0,0,0,3.375,15.75v1.125A1.125,1.125,0,0,0,4.5,18H5.621A37.672,37.672,0,0,1,4.5,27h9a37.672,37.672,0,0,1-1.121-9H13.5a1.125,1.125,0,0,0,1.125-1.125V15.75A1.125,1.125,0,0,0,13.5,14.625h-.7L15.18,8.27a1.125,1.125,0,0,0-1.055-1.52h-4V4.5h1.688a.562.562,0,0,0,.563-.562V2.813a.562.562,0,0,0-.562-.562H10.125V.563A.562.562,0,0,0,9.563,0H8.438a.562.562,0,0,0-.562.563V2.25H6.188a.562.562,0,0,0-.562.563V3.938a.562.562,0,0,0,.563.563H7.875V6.75h-4A1.125,1.125,0,0,0,2.819,8.27ZM17.378,32.314,15.75,31.5V30.375a1.125,1.125,0,0,0-1.125-1.125H3.375A1.125,1.125,0,0,0,2.25,30.375V31.5l-1.628.814A1.125,1.125,0,0,0,0,33.32v1.555A1.125,1.125,0,0,0,1.125,36h15.75A1.125,1.125,0,0,0,18,34.875V33.32a1.125,1.125,0,0,0-.622-1.006ZM23.9,21.22,23.67,27h8.91l-.231-5.78,1.73-1.462a2.25,2.25,0,0,0,.8-1.72V13.922a.422.422,0,0,0-.422-.422H32.6a.422.422,0,0,0-.422.422V15.75H30.439V13.922a.422.422,0,0,0-.422-.422H26.234a.422.422,0,0,0-.422.422V15.75H24.074V13.922a.422.422,0,0,0-.422-.422H21.8a.422.422,0,0,0-.422.422v4.12a2.25,2.25,0,0,0,.8,1.716Zm3.1.155a1.125,1.125,0,0,1,2.25,0v2.25H27Zm8.378,10.939L33.75,31.5V30.375a1.125,1.125,0,0,0-1.125-1.125h-9A1.125,1.125,0,0,0,22.5,30.375V31.5l-1.628.814a1.125,1.125,0,0,0-.622,1.006v1.555A1.125,1.125,0,0,0,21.375,36h13.5A1.125,1.125,0,0,0,36,34.875V33.32a1.125,1.125,0,0,0-.622-1.006Z" transform="translate(367 8487)" stroke="#fff" stroke-width="1"/></g></svg>