<svg xmlns="http://www.w3.org/2000/svg" xmlns:xlink="http://www.w3.org/1999/xlink" width="533.373" height="410.267" viewBox="0 0 533.373 410.267"><defs><clipPath id="a"><rect width="533.373" height="410.267" fill="none"/></clipPath></defs><g clip-path="url(#a)"><path d="M58.362,156.778c-.4-8.481-2.965-16.6-4.14-24.968a274.046,274.046,0,0,1-1.7-62.6A311.439,311.439,0,0,1,64.295,6.692c.335-1.113.691-2.22,1.06-3.323.583-1.747,1.129-3.946,3.538-3.231,2.606.775,1.458,2.863.9,4.569a261.879,261.879,0,0,0-7.571,29.932c-7.807,38.775-8.179,77.523.2,116.263.849.736,2.468.535,2.61,2.134.386,9.285,4.257,17.639,7.115,26.253,1.2,3.608,2.8,7.082,4.213,10.62.815,2.043,1.873,3.542,4.418,2.607.773.295,1.2.751.751,1.61-.91,2.969-4.584,6.175.739,8.61.856-.524,1.26.011,1.608.681.079,4.349,2.655,7.475,5.229,10.6a4.409,4.409,0,0,1,1.014,1.825c.75,3.857,3,7.024,5.011,10.227,12.4,19.759,26.374,38.311,43.316,54.426,19.569,18.613,41.3,33.9,67.4,42.152,1.266.4,2.514.86,3.806,1.184a1.706,1.706,0,0,0,1.332-.259c-2.094-3.5-4.642-6.718-6.37-10.411A34.555,34.555,0,0,1,201,299.8a9.593,9.593,0,0,0-2.016-5.992c-.4-1.692,1.478-2.188,1.811-3.5,1.165-3.135,1.3-6.511,2.3-9.682a20.164,20.164,0,0,1,1.053-2.77c4.592-10.314,11.549-18.115,22.794-21.3,2.836-.8,3.891-2.633,3.924-5.515.05-4.5,1.309-8.828,2.408-13.164.82-3.233,2.621-5.283,6.168-5.427a12.413,12.413,0,0,0,3.415-.628c4.05-1.348,6.227-4.872,5.142-8.314-1.368-4.337-4.977-6.185-9.385-4.875-2.687.8-4.76,3.125-7.779,3.1-2.872-.488-4.5-2.092-4.581-5.087a42.3,42.3,0,0,0,1.914-20.07c-.62-4.081.206-8.359,4.912-10.338a4.325,4.325,0,0,1,3.039,1.484c10.308,9.758,19.145,20.632,25.482,33.424a23.815,23.815,0,0,1,1.374,4.707c-.784,6.184-5.154,9.386-10.192,11.8a29.856,29.856,0,0,1-13.44,3.05c-2.727-.043-4.523.534-4.432,3.741a16.951,16.951,0,0,1-.662,2.895c-1.263,7.965-.694,8.28,7.172,9.42,16.153,2.339,28.593,9.994,34.974,25.777.386.954.015,3.624,2.624,2.085,1.012-.2,1.35.428,1.536,1.246-1.486,5.411-1.358,10.993-1.727,16.526a5.533,5.533,0,0,1-.948,2.09,14.158,14.158,0,0,0-1.1,1.654c-11.021,18.7-20.132,24.777-42.135,27.894,8.018,5.621,16.778,9.1,25.615,12.192,18.079,6.323,36.8,9.859,55.844,11.754,1.5.149,2.974-.238,4.467-.212,1.869.287,3.453,1.7,5.481,1.378a18.582,18.582,0,0,0,7.79-1.072c1.331-.071,2.421.893,3.751.837a292.981,292.981,0,0,0,61.1-4.77,25.634,25.634,0,0,0,5.672-1.7c2.255-1.692,3.191,2.6,5.393,1.191,23.086-5.141,45.455-12.356,66.617-23.045a250.893,250.893,0,0,0,25.268-14.933c1.49-.986,3.38-3.279,5.14-.91,2.071,2.788-1.064,3.718-2.626,4.788-27.492,18.817-58,30.479-90.271,38-3.168.738-7.236-.017-9.145,3.9-1.144.636-1.857-.588-2.848-.642-.434-.038-.858-.082-1.292-.1a9.51,9.51,0,0,0-4.713,1.377c-10.185,2.336-20.566,3.172-30.937,3.766-10.538.6-21.079,1.37-31.641,1.372a5.351,5.351,0,0,1-3.622-1.245c-.4-.214-.807-.454-1.2-.681-2.508-1.109-5.106-.7-7.7-.415a7.3,7.3,0,0,1-1.351.126c-1.161-.08-2.308-.292-3.477-.288-33.317-2.428-64.949-10.138-92.828-29.6a12.327,12.327,0,0,0-4.94-2.261c-27-4.71-49.987-17.819-70.692-34.973A267.511,267.511,0,0,1,84.6,221.889a24.845,24.845,0,0,0-1.966-3.675c-1.855-2.762-3.034-5.9-4.794-8.71-.483-.717-.953-1.443-1.427-2.166-.988-1.987-3.45-2.616-4.344-4.693a4.866,4.866,0,0,1,.412-2.005c-1.043-5.428-3.745-10.229-5.761-15.279a141.715,141.715,0,0,1-7.628-24.694c.16-1.368-1.415-2.422-.728-3.889" fill="#20332c"/><path d="M277.047,197.827c3.3,1.854,2.127,4.994,1.7,7.487-1.512,8.838-6.435,15.324-14.527,19.327-4.136-4.392-6.134-10.139-9.558-15.01a150.271,150.271,0,0,0-20.123-23.3c-4.776-3.014-8.846-6.952-13.424-10.234a64.664,64.664,0,0,0-27.27-11.732c1.041-.23,2.412.684,1.559,2.459-1.669,3.476-3.07,7.421-7.58,8.442-.726-.359-1.246-.815-.827-1.72-.833-1.6-1.738-3.161-2.481-4.8-.721-1.588-1.058-4.092.53-4.442,3.927-.864,4.01-5.62,7.6-6.584,1.725-.464,1.155-2.149,1.286-3.4,1.419-13.5,17.6-21.64,30.108-14.887-7.111,2.763-13.687,5.95-14.871,14.612,3.743-8.008,10.212-12.1,18.686-13.323,12.113-1.755,22.04,2.651,30.737,10.765,5.49,5.123,10.95,10.18,11.459,18.37.6,8.172-4.288,13.87-9.034,20.513,4.278-5.617,8.138-10.557,9.054-17.127.3-2.158.684-4.424,3.865-3.2l4.126,4.7c2.254,1.139.975,3.5,1.772,5.137,2.115,6.391-.981,11.547-3.966,16.73-1.425,3.77-4.519,5.9-7.488,7.809,3.519-1.065,5-5.3,8.671-6.6" fill="#20332c"/><path d="M89.36,340.478c-.827,5.344-2.07,10.535-5.571,14.876-.934,1.158-1.833,2.357-2.868,3.42-5.63,5.776-5.634,5.758-1.7,12.8C83.006,378.36,86.88,385.1,90.5,391.981c1.435,2.727,2.791,4.3,6.077,2.641,1.5-.754,3.83-1.785,4.547.819.681,2.475-1.838,2.712-3.453,3.314-9.44,3.513-18.881,7.022-28.358,10.433-1.694.609-4.129,2.341-5.062-.516-.867-2.655,1.9-2.947,3.7-3.607.769-.282,1.555-.519,2.333-.777,1.271-.769-.1-3,1.871-3.387,5.127-.171,9.508-2.771,14.186-4.392,2.18-.755,1.979-2.233,1.036-3.977-4.261-7.876-8.995-15.489-13.065-23.467-2-3.913-4.617-1.879-7.166-.969-.864.345-1.717.837-2.678.294-1.123-1.057-2.517-.7-3.8-.637-8.59.447-15.9-2.614-22.389-8.011-.8-1.382-1.983.755-2.817-.308-1.135-2.444-3.071-3.572-5.722-4.068-5.982-1.119-11.972-2.282-17.852-3.83-7.108-1.872-11.31-8.424-9.988-14.9C3.46,329,9.056,324.864,16.9,325.447c2.57.191,5.412,1.984,7.552-1.047,4.565-4.235,10.757-4.8,16.2-7,10.856-4.382,22.029-7.95,33.039-11.946,1.568-.57,3.109-1.17,4.786-.44,1.27.169,2.745-.262,3.572,1.214,1.94,8.216,6.137,15.714,7.711,24.051.445,3.419,2.956,6.925-.393,10.2" fill="#20332c"/><path d="M409.762,353.618c-2.039,2.114-2.794-.146-3.917-1.15-1.577-1.578-.832-3.451-.547-5.187,4.414-26.886,8.022-53.891,11.878-80.858,1.539-10.761,6.546-19.355,14.256-26.671,1.019-.967,2.6-1.646,2.225-3.8-2.857-.407-4.906,1.507-7.23,2.53-3.824,1.682-5.076,1.1-6.032-2.879a48.331,48.331,0,0,1-1.045-11.386c0-2.739.053-5.567-2.46-8.5a34.8,34.8,0,0,0-1.79,11.241c-.006,2.323.135,4.676-.643,6.915-.421,1.212-.712,2.83-2.369,2.8-1.571-.027-2.138-1.443-2.41-2.773-.932-4.558-1.675-9.149-2.324-13.758-.311-2.217-.236-4.6-2.1-6.777-1.55,2.235-1.117,4.377-.734,6.421.866,4.622.643,9.275.509,13.918-.049,1.72.118,4.233-2.387,4.178-2.059-.045-1.951-2.348-2.149-3.953-.519-4.19-.541-8.5-3.015-12.321-1.668,1.045-1.4,2.532-1.279,3.708,2.289,21.486-5.32,40.889-12.552,60.393-5.2,14.019-10.062,28.163-15.518,42.084-1.33,3.394-.447,5.207,2.655,6.755,2.046,1.021,5.936,2,4.561,4.694-1.329,2.6-4.429.059-6.617-.827a103.462,103.462,0,0,1-13.549-6.311c-3.745-2.193-5.52-.993-7.1,2.721-3.252,7.637-7.033,15.045-10.285,22.688a10.127,10.127,0,0,1-1.872,2.916c-1.209-.1-1.061-1.489-1.871-1.967-1.711-2.074-.033-3.773.753-5.436,2.391-5.056,4.543-10.206,6.962-15.553-6.063.312-11.3.99-12.548,7.991-.884,4.958-6.122,9.03-3.009,14.809-2.276.848-3.944-.056-5.307-1.84-1.4-2.03-.105-3.841.57-5.622,1.588-4.189,3.311-8.328,4.919-12.51.4-1.05,1.052-2.284-.006-3.249-1.115-1.016-2.279-.264-3.088.532-6.127,6.025-12.471,4.532-19.151.959a154.265,154.265,0,0,1-16.266-9.639c-5.14-3.62-8.371-8.09-5.915-14.8.788-2.156.019-3.815-1.684-5.272-1.607-1.374-3.529-2.628-3.417-5.173l1.281-1.338c3.032.064,4.4,2.746,6.516,4.221a273.338,273.338,0,0,0,43.9,25.43c6.448,2.907,12.461,1.72,16.188-3.038,1.818-2.321,2.013-3.835-1.144-5.247-20.227-9.048-39.037-20.6-57.438-32.849-2.2-1.465-4.554-2.776-6.088-5.056l-1.062-1.163c5.626-9.943,11.138-19.952,16.9-29.814,11.791-20.176,17.7-41.8,15.8-65.2-1.006-12.375-3.644-24.6-2.843-37.14,1.236-19.331,7.91-36.773,17.67-53.253,1.462-2.469,3.277-2.268,5.516-1.711,6.811,1.7,13.08,4.765,19.289,7.861,42.67,21.276,84.04,44.8,123.25,72,3.533,2.45,6.76,5.353,10.046,8.143,2.571,2.183,3.025,4.337,1.159,7.717-11.658,21.125-27.942,37.22-49.642,48.024-7.976,3.971-12.812,11.434-14.313,19.957-3.446,19.567-5.974,39.294-8.957,58.943-1.469,9.671-3.19,19.3-4.616,28.982-.222,1.5-2.188,4.087,1.488,4.5" fill="#20332c"/><path d="M204.145,56.952a2.528,2.528,0,0,1-.353.349c-11.691,7.778-17,7.174-26.39-3.048C164.47,40.177,161.459,23.471,164.444,5.192c.342-2.094.616-3.813,3.7-2.548,17.382,7.122,35.1,5.908,52.724,1.237,4.6-1.22,5.705-.422,5.576,4.21-.209,7.46.072,14.925-2.508,22.1-.461,1.026-.431,2.408-1.938,2.677-2.66.2-4.047,2.039-5.246,4.1-3.188,5.469-6,11.1-7.313,17.357-.342,1.624-.546,3.287-1.712,4.6-1.072.786-1.733.426-2.04-.774-.211-.82-.454-1.54-1.546-1.192" fill="#20332c"/><path d="M402.531,359.564c1.374-.137,1.317,1.428,2.214,1.859-6.24,19.211-23.563,28.614-43.741,23.719a241.935,241.935,0,0,1-28.913-8.922c-1.794-.682-3.2-1.472-4.625.786-1.383,2.188-3.342.45-4.886-.075-9.232-3.142-18.418-6.421-28.507-9.966,1.593,6.908,3.042,12.955,4.363,19.029.58,2.665,2.568,2.112,4.306,2.116,10.812.024,21.624,0,32.435.032,1.522,0,3.162-.36,4.474,1.47H98.327c.723-2.024,2.226-1.442,3.321-1.45,7.651-.06,15.305-.152,22.953.021,3.044.069,3.456-.753,2.867-3.684q-8.736-43.464-17.069-87.008c-.563-2.954-2.534-3.657-4.505-4.682-17.23-8.96-34.458-17.925-51.761-26.744-3.094-1.577-5.438-2.954-3.909-7.035.965-2.577-.406-4.189-2.785-5.534-5.056-2.858-9.966-5.988-14.848-9.142-16.115-10.408-20.9-26.41-13.3-44.118a36.733,36.733,0,0,1,5.871-9.784c10.368-11.91,21.773-22.8,33.2-33.674.552,1.174,2.514,1.556,1.9,3.385-5.552,3.764-9.789,8.94-14.447,13.64-6.765,6.827-14.208,13.039-19.783,20.983A35.351,35.351,0,0,0,20.088,223.6a24.54,24.54,0,0,0,9.567,14.71c5.309,4.014,11.12,7.243,16.7,10.838,3.092,1.992,4.117,1.03,4.964-2.291,3.6-14.126,10.812-26.311,20.741-36.907,1.414-1.509,2.671-3.517,5.231-3.345l1.12,2c-.3,2.177-2.006,3.376-3.377,4.779-11.394,11.66-17.893,25.8-21.006,41.615-.507,2.576-.942,5.324,1.319,7.488,2.356,2.254,4.125,1.894,4.832-1.319A82.275,82.275,0,0,1,65.524,244.1c4.538-9.8,9.215-19.528,18.082-26.373l1.737,3.1a28.981,28.981,0,0,1-3.8,5.232C72.5,236.746,67.7,249.364,64.559,262.8c-.895,3.83,1.1,5.327,3.982,6.9q17.5,9.574,35.527,18.119c6.228,2.969,9.54,7.159,10.832,14.174q7.177,38.967,15.021,77.813c1.4,7,1.584,7.154,8.82,7.155q74.552.014,149.1,0c7.118,0,7.39-.4,5.692-7.485-.851-3.554-2.041-7.042-2.5-10.671-.534-4.252.994-5.6,5.12-4.538,3.864.988,7.591,2.446,11.378,3.7,6.664,2.2,6.662,2.213,9.189-4.424,1.329-.409,2.238.567,3.312,1,1,1.452.314,2.875-.18,4.233-.688,1.893-1.025,3.495,1.472,4.314,2.086.685,3.79.678,5.121-1.453,1.409-2.254,1.781-4.959,3.308-7.138,1.286.018,1.239,1.546,2.195,1.937-.943,6.289,3.321,7.683,8.1,9.239a222.9,222.9,0,0,0,24.421,6.7c15.41,3.147,26.551-2.326,35.561-17.983.9-1.569,1.238-3.439,2.5-4.829" fill="#20332c"/><path d="M81.528,194.126l-1.012-1.292c-.987-1.785.113-3.227.9-4.618,7.267-12.868,14.02-26.02,21.692-38.667a23.535,23.535,0,0,1,11.759-10.225c5.864-2.332,11.642-4.869,17.31-7.669,2.946-1.456,4.623-3.4,5.012-6.778,1.061-9.221,1.577-18.523,3.772-27.6.26-1.074.64-2.475-.7-3.124-1.4-.682-2.623.185-3.544,1.15-3.772,3.953-5.719,8.893-7.356,13.983-1.962,6.1-1.964,5.966-8.477,6.257-4.791.214-9.061,1.821-12.272,5.706-1.789,2.166-3.8,3.849-5.3-.353-.667-1.865-2.083-1.888-3.67-1.4-2.881.9-5.209.225-6.995-3.075-1.314,9.634-5.34,17.073-12.373,23.014-4.048,3.419-7.506,7.524-11.372,11.172-1.216,1.147-2.256,3.078-4.536,2.145L62.421,150.9c2.442.157,3.193-2.108,4.649-3.323,1.653-1.381,2.96-3.2,4.68-4.475,13.939-10.34,19-25.307,21.941-41.459.765-4.2,1.982-8.316,7.6-8.141a1.926,1.926,0,0,0,2.117-1.6c.911-2.73,2.878-4.327,7.04-4.187-6.941-7.685-13.108-14.524-19.29-21.35a93.81,93.81,0,0,0-7.45-8.027c-8.13-7.087-11.5-16.821-15.184-26.4-.382-.993-1.538-2.2-.24-3.126,1.11-.8,2.1.492,3.14.855C86.794,35.013,96.1,47.623,106.511,58.911q2.365,2.565,4.692,5.165c2.13,2.392,3.576,5.8,7.245.9,2.035-2.72,5.754-1.525,8.357,1.015,3.96,3.865,5.385,9.049,7.368,13.935.932,2.3,1.651,4.684,2.4,7.052.639,2.017,1.254,3.361,4.077,2.9,3.777-.612,5.379,1.91,4.186,5.247-1.431,4,.258,6.516,2.739,9.222q13.8,15.057,27.408,30.291c4.126,4.6,4.251,9.313.5,12.715-3.614,3.279-8.465,2.609-12.622-1.9-7.074-7.669-14.076-15.4-22.306-24.421,1.725,11.918-6.495,14.344-13.533,16.562-13.248,4.175-21.991,12.342-27.873,24.835-5.137,10.911-11.7,21.153-17.626,31.691" fill="#20332c"/><path d="M89.358,215.747,88.232,214.7c-1.142-2.873,4.842-3.278,2.371-6.251-1.512-1.819-4.369-2.037-6.39-3.415a2.7,2.7,0,0,1-.821-1.187l-1.125-1.106c2.1-1.927,3.717.078,5.305.833q38.655,18.331,77.236,36.821c5.813,2.78,11.391,3,17.29-1.233-12.277-9.067-15.7-21.118-12.805-35.343,1.961.006,1.807,1.605,2.151,2.832.258,3.469-.175,6.965.486,10.431,2.735,14.341,12.3,22.513,28.268,24.286,2.054.227,5.782-.883,5.611,2.186-.169,3.019-3.834,2.252-6.248,2.316a5.171,5.171,0,0,1-1.969-.264c-8.173-3.163-16.2-2.961-24.489.02-2.795,1.005-3.4,1.659-2.623,4.326,3.7,12.733,12.291,20.481,24.52,24.817,3.4,1.2,7.279,1.19,10.136,3.825l-.99,2.033c-2.844,1.568-5.446-.151-8.03-.793-3.733-.931-4.56,1.444-5.487,4.021-1,2.78.632,3.82,2.868,4.693,2.873,1.123,6.242.88,8.69,3.152-.517,1.427-2.3.6-3.009,1.7-1.088,1.313-2.447.8-3.674.417-12.571-3.915-24.122-9.52-32.5-20.167-6.47-8.222-10.272-17.535-9.93-28.065.171-5.247-1.649-8.153-6.414-10.379-15.047-7.032-30.129-14-44.987-21.431-3.017-1.509-5.617-1.585-8.32.532-1.118.878-2.269,2.069-3.995,1.446" fill="#20332c"/><path d="M510.054,286.15c-12.3,2.1-19.479,8.659-20.841,21.486-1.978-12.531-8.514-19.9-21.394-21.418,12.736-1.77,19.508-8.7,21.267-21.233,1.8,12.427,8.526,19.4,20.968,21.165" fill="#20332c"/><path d="M23.244,323.363c-3.1-2.692-2.256-6.457,2.166-8.346,4.1-1.751,8.385-3.066,12.582-4.591,10.4-3.777,20.786-7.6,31.2-11.334,5.516-1.981,8.159-.7,9.045,4.2-6.759,4.277-14.591,5.9-21.948,8.637-9.726,3.623-19.487,7.173-29.22,10.786-1.3.483-2.591.232-3.824.65" fill="#20332c"/><path d="M204.145,56.952c2.928-1.918,1.48,2.022,2.88,2.15,2.282,2.372,1.38,5.357,1.358,8.067a44.972,44.972,0,0,0,5.7,21.941,7.9,7.9,0,0,0,7.059,4.63c22.738,1.389,39.715-11.359,48.293-32.184,1.738-4.22-1.357-4.324-3.929-4.9A102.878,102.878,0,0,1,230.733,42.15a74.994,74.994,0,0,1-7.331-5.988c-1.138-.978-2.267-2.046-1.626-3.821l2.164-2.153c.039,2.919,2.353,4.272,4.217,5.8,12.221,9.994,26.467,15.392,41.849,18.085,5.725,1,5.775.921,3.53,6.376-6.925,16.831-17.341,30.129-35.864,35.117a50.678,50.678,0,0,1-6.811,1.4c-15.1,1.9-21-2.606-24.769-18.822a60.212,60.212,0,0,1-1.178-16.793c.072-1.437,1.355-3.28-.769-4.4" fill="#242424"/><path d="M124.193,366.272c-15.866,5.554-15.011,4.814-20.566,20.51-1.38-11.949-7.267-18.408-19.285-19.486,17.385-6.6,15.528-7.39,20.04-20.727,1.321,12.194,7.214,18.7,19.811,19.7" fill="#212121"/><path d="M81.515,306.807c-.766-1.3-2.184-1.016-3.341-1.365a.575.575,0,0,1,.231-.817c2.345.761,3.089-1.092,4.246-2.47,5.592-6.663,13.4-7.646,19.647-2.555,6.023,4.909,6.667,12.712,1.513,19.4-3.427,4.448-6.964,8.812-10.459,13.208-1.573,1.978-3.322,4.028-1.542,6.638,1.767,2.591,4.154,2.178,6.583.84.322-.178.879.071,1.854.182-3.759,4.815-7.328,2.607-10.887.608,2.8-3.665-1.026-6.794-.831-10.249a5.563,5.563,0,0,0,4.181-2.375c3.138-4.066,6.5-7.975,9.386-12.218,3.152-4.625,2.347-10.06-1.692-13.387a10.612,10.612,0,0,0-14.077.63c-1.513,1.4-2.2,3.859-4.812,3.928" fill="#20332c"/><path d="M11.933,279.642c1.383,6.768,5.021,10.648,12.123,11.708-7.171,1.183-10.519,5.5-12.183,11.924C10.4,296.867,7.121,292.615,0,291.469c6.46-1.558,10.717-4.778,11.933-11.827" fill="#20332c"/><path d="M261.377,150.992c-7.028-3.008-7.668-8.521-7.311-14.556.1-1.72.068-3.452,2.163-3.9,2.362-.5,3.877,1.021,4.62,2.867,2.046,5.082,1.034,10.26.528,15.587" fill="#20332c"/><path d="M78.4,304.625a4.2,4.2,0,0,1-.232.816q-25.927,9.255-51.858,18.5a18.309,18.309,0,0,1-1.868.458l-1.2-1.037c18.074-7.392,36.518-13.771,54.991-20.072q.085.667.17,1.335" fill="#bfbdbd"/><path d="M426.437,323.29c6.227-1.214,10.25-4.275,11.2-10.886,1.564,6.32,5.074,9.909,11.4,11.174-6.111,1.408-10.032,4.676-10.685,11.687-4.981-9.952-3.581-7.87-11.913-11.975" fill="#20332c"/><path d="M235.038,185.931a115.619,115.619,0,0,1,29.182,38.71l-1.248,1.2c-7.36-14.694-17.342-27.439-28.979-38.954a1.171,1.171,0,0,1,1.045-.958" fill="#bcbbba"/><path d="M460.452,301.677,437.813,262.52l1.743-1.019,22.652,39.151-1.756,1.025" fill="#2b2b2b"/><path d="M475.845,224.771l38.682,22.446-.978,1.715-38.8-22.423,1.1-1.738" fill="#20332c"/><path d="M437.823,89.224l22.634-39.176,1.75,1.007L439.6,90.232l-1.773-1.008" fill="#2b2b2b"/><path d="M338.621,90.388l-22.54-39.269,1.756-1,22.537,39.195-1.753,1.077" fill="#2d2d2d"/><path d="M474.677,125.12l39.035-22.445,1,1.713-38.945,22.52-1.093-1.788" fill="#2d2d2d"/><path d="M302.481,126.882,263.52,104.5l.994-1.735,38.994,22.326-1.027,1.792" fill="#2b2b2b"/><path d="M388.45,76.47V31.327l1.032-.011V76.444l-1.032.026" fill="#292928"/><path d="M488.465,175.145h44.893l.015,1.144h-44.9c0-.381-.005-.763-.008-1.144" fill="#3a3a3a"/><path d="M170.35,207.05c-.324-1.088.062-2.407-1.057-3.235.58-3.792,1.84-7.482-1.228-11.086-1.834-2.155.052-3.783,2.1-5.029,6.331-3.848,12.524-7.891,16.831-14.157l1.249,1.342c.661,3-1.478,4.545-3.325,6.117a93.377,93.377,0,0,1-11.146,8.243c-2,1.248-2.406,2.524-1.223,4.889,2.328,4.656.738,8.98-2.2,12.916" fill="#2a2a2a"/><path d="M72.323,401.367c-1.289.549-.247,2.721-2.037,2.921-.147-8.935-2.994-17.431-4.273-26.182-.474-3.245-1.025-6.478-1.541-9.716l1.9-.985a3.189,3.189,0,0,1,1.478,1.941c1.95,9.761,4.035,19.5,5.508,29.348a2.851,2.851,0,0,1-1.039,2.673" fill="#353535"/><path d="M273.932,170.044c-2.73-.791-2.387,1.33-2.706,2.842a38.908,38.908,0,0,1-8.661,17.028c-.749.894-1.376,2.317-3.881,1.657,5.741-6.526,9.79-13.523,11.363-21.716,1.326-.566,2.706-2.261,3.885.189" fill="#bbbab9"/><path d="M277.047,197.827a39.343,39.343,0,0,1-11.025,9.686l-.968-1.2,10.81-9.7,1.183,1.211" fill="#a2a1a1"/><path d="M279.83,179.886c-1.823-1.288-.514-3.655-1.772-5.137,3.956-.023,7.941-.411,13.07.559-3.317,2.5-5.965,1.589-8.341,1.632-2.189.04-3.508.408-2.957,2.946" fill="#3f3e3e"/><path d="M35.463,359.435c.941.083,2.1-1.817,2.817.308-1.667,3.653-3.145,7.572-9.661,6.3,3.213-2.252,6.851-2.793,6.844-6.608" fill="#20332c"/><path d="M335.918,360.429c1.288-7.44,5.786-13.574,8.368-20.491,1.042-2.792,2.625-5.389,3.578-8.2,1.18-3.488,2.89-3.626,5.9-2,5.4,2.918,10.989,5.482,16.522,8.148,1.564.754,3.061,2,5.265,1.262-1.739-2.638-4.435-3.331-6.836-4.166-3.286-1.142-3.652-2.74-2.491-5.861,6.828-18.355,13.144-36.906,20.254-55.15,6.306-16.182,10.022-32.613,8.392-50.055-.168-1.8-1.006-4.5,1.748-4.991S399.4,221.243,400,223c1.583,4.638,1.306,9.655,2.744,14.424,1.621-2.168,1.015-4.56.937-6.826-.189-5.481-.518-10.958-.8-16.436-.084-1.6.045-3.14,2.045-3.345,1.935-.2,2.62,1.27,2.865,2.8,1.022,6.393,1.948,12.8,2.913,19.205.191,1.266-.066,2.733,1.944,3.634,1.826-6.007.9-12.2,1.887-18.149.293-1.757-.8-4.475,2.358-4.564,2.789-.078,2.907,2.4,3.1,4.3q.912,9.164,1.481,18.359c.166,2.718.964,3.307,3.279,1.695a24.061,24.061,0,0,1,4.751-2.7c2.018-.8,4.588-3.032,6.237-.5,1.569,2.4-1.118,4.078-2.874,5.488a39.464,39.464,0,0,0-5.216,5.316c-5.7,6.68-8.247,14.448-9.449,23.1-3.882,27.925-8.2,55.79-12.349,83.678-.938,2.891-3.61,2.486-5.75,2.9-21.2,4.121-42.628,5.359-64.178,5.059" fill="#fff"/><path d="M170.35,207.05c.689-2.724,1.278-5.478,2.1-8.161a3.969,3.969,0,0,0-.981-4.512c-2.8-2.671-1.556-4.116,1.309-5.887,5.886-3.64,11.793-7.394,15.468-13.605l7.134-8.525c-1.215-2.173-3.351-.077-5.239-2.107,3.978-1.347,7.368-.625,10.691.3,11.281,3.14,20.523,9.847,29.455,17.056,1.663,1.342,3.171,2.876,4.75,4.322l-1.044.958c-5.655,2.3-4.782,7.244-4.244,11.6.793,6.416.483,12.5-2.638,18.277-.374.55-.045-.206-.292.4-.721,1.754-3.539,3.17-2.125,5.131,1.7,2.364,3.313-.929,5.127-1a4.113,4.113,0,0,0,1.447-.341,73.513,73.513,0,0,1,6.523-3.5c3.271-1.372,6.531-1.217,9.236,1.382,2.648,2.543,3.191,5.7,2.227,9.169-1.054,3.79-4.119,5.752-7.471,5.379-5.681-.634-6.935,2.374-7.894,6.873-.97,4.549-2.007,9.039-1.8,13.721.068,1.538.11,2.751-2.044,3.169-12.34,2.4-19.992,10.359-24.908,21.439-17.7-2.877-31.09-11.058-36.27-29.392-.891-3.155-1.708-5.889,3.482-4.8a8.817,8.817,0,0,0,7.155-1.456c3.7-3.036,6.9-1.883,10.785-.424a28,28,0,0,0,16.091,1.6c-1.508-1.86-2.855-1.387-3.979-1.475-1.157-.09-2.333.014-3.48-.131-18.9-2.4-28.765-13.843-28.485-32.988.012-.824-.055-1.649-.085-2.473" fill="#fff"/><path d="M77.288,206.6c-12.7,11.387-21.28,25.281-25.08,41.937-.909,3.98-2.007,4.826-5.508,2.287-3.884-2.816-8.124-5.14-12.2-7.7-17.548-11.026-21.712-30-10.494-47.67a67.636,67.636,0,0,1,9.312-10.994q11.537-11.709,23.17-23.321c.949-.945,1.844-3.311,3.775-.982C62.808,172.9,67.784,184.8,72.792,196.7c.641,1.523,2.536,2.922.87,4.891-3.142-.567-5.678-2.537-8.568-3.692,2.392,1.69,5.683,1.993,7.372,4.765,1.485,1.464,4.078,1.573,4.822,3.942" fill="#fff"/><path d="M64.367,152.76a149.731,149.731,0,0,0,22.359-22.592c3.3-4.218,4.114-10.383,6.165-15.98,1.4,4.732,3.761,6.185,8.084,3.283,1.927-1.294,4,1.5,4,6.695,3.6-5.626,7.882-10.051,13.461-9.365,7.76.955,9.418-2.97,10.978-9.017,1.269-4.919,3.68-9.654,8.208-12.679,1.331-.889,2.989-2.023,4.585-.813,1.443,1.093.633,2.751.263,4.174-2.479,9.531-3.19,19.314-4,29.068a7.3,7.3,0,0,1-4.844,6.774c-5.932,2.556-11.749,5.384-17.713,7.861A23.517,23.517,0,0,0,103.8,150.634c-7.9,13.991-15.978,27.881-23.284,42.2-1.133.705-.933,2.531-2.793,3.03a218.288,218.288,0,0,1-14-39.814,4.365,4.365,0,0,1,.64-3.289" fill="#fff"/><path d="M272.024,286.593c2.867,5.148,1.624,10.353-.2,15.34-6,16.392-21.485,25.842-41.344,25.98-5.4.038-9.433-1.531-12.878-5.711-5.586-6.781-9.85-14.035-10.9-22.957-.365-3.1-.057-4.669,3.7-4.291a34.859,34.859,0,0,0,13.694-1.478,9.961,9.961,0,0,1,4.261-2.47,51.848,51.848,0,0,0,18.453-11.494c2.734-2.559,5.165-2.859,8.486-1.264,4.029,1.934,8.169,3.678,12.347,5.3,1.689.657,3.481,1.223,4.382,3.041" fill="#fff"/><path d="M276.86,303.655a6.239,6.239,0,0,0,1.183,1.557c4.534,3.088,6.958,6.451,4.491,12.5-1.337,3.278,1.2,6.684,4.188,8.9a117.183,117.183,0,0,0,23.266,13.334c4.765,2.071,9.131.878,12.446-3.282,1.468-1.843,2.848-3.113,5.371-1.475s.662,3.23.132,4.709c-2.229,6.219-5.329,12.108-7.039,18.528-4.4,2.236-8.867.32-13.138-.208-23.328-2.887-46.053-8.138-67.115-19.071-3.221-1.672-6.291-3.636-10.441-6.052,5.4-.73,9.778-.992,13.992-1.951,13.6-3.1,23.517-11.085,30.111-23.319.771-1.43,1.017-3.207,2.553-4.177" fill="#fefefe"/><path d="M280.078,285.778c3.175.074,4.725,2.84,7.007,4.345,18.985,12.521,38.341,24.367,59.27,33.432,1.312.568,2.281.747,1.511,2.7-2.484,6.3-9.928,10.512-16.228,8.054-18.2-7.1-34.646-17.39-50.4-28.817a25.237,25.237,0,0,1-3.1-3.176c-.61-5.66-.755-11.266,1.939-16.539" fill="#fefefe"/><path d="M402.531,359.564c1.1,2.415-.735,4.109-1.646,5.9-7.671,15.106-20.825,21.384-37.373,18a204.783,204.783,0,0,1-26.572-7.578c-7.26-2.539-7.25-2.567-4.985-9.453,1.415-2.036,3.511-1.4,5.449-1.39,19.924.163,39.764-.76,59.376-4.617,1.605-1.1,3.6.09,5.227-.888a.321.321,0,0,0,.524.02" fill="#fefefe"/><path d="M83.607,217.732c-1.429,3.446-4.474,5.643-6.641,8.526-8.018,10.666-12.836,22.678-15.809,35.577-.329,1.428.779,5.131-2.336,3.94-2.516-.963-6.981-.864-6.548-5.906a75.9,75.9,0,0,1,9.047-29.656c4.4-8.189,9.6-15.823,17.089-21.6l5.2,9.123" fill="#feffff"/><path d="M238.171,268.476c-1.059-2.281-3.745-4.875-2.342-6.873,1.211-1.725,4.642-.451,7.047.007,13.275,2.524,23.428,9.209,28.986,21.94-1.718,1.766-3.458.484-5-.169-8.021-3.394-16.067-6.73-24.085-10.131-2.19-.929-4.029-2.259-4.606-4.774" fill="#f8f9fa"/><path d="M215.078,279.439l-4.839-.411c3.975-8.809,10.175-14.7,19.456-17.147,2.131-.563,3.919-.444,4.4,2.327a10.808,10.808,0,0,0,3.1,5.408c2.341,2.164.531,3.723-1.083,4.63-6.5,3.654-13.241,6.642-21.034,5.193" fill="#fafcfc"/><path d="M326.2,360.272c-2.512-.474-4.548-1.066-2.5-4.342a18.5,18.5,0,0,0,2.209-5.533c2.205-9.411,6.655-16.077,17.79-14.56-3.094,7.246-6.377,14.935-9.661,22.624-1.987,3.317-5.291.935-7.842,1.811" fill="#f8f8f8"/><path d="M215.078,279.439c6.732-1.254,13.583-2.161,19.614-5.729,1.414-.836,4.114-1.258,2.5-4.094l.976-1.14c3.207,3.563,7.732,4.817,11.924,6.5,7.232,2.909,13.874,7.343,21.767,8.571,1.424.941-.173,2.043.162,3.043-5.783-2.443-11.629-4.748-17.32-7.388-2.865-1.329-4.732-1.424-7.22,1.153A45.24,45.24,0,0,1,224.1,293.476q0-.932.01-1.863c2.058-2.637,5.521-2.705,8.1-4.413,1.222-.81,2.875-1.335,2.408-3.227a5.628,5.628,0,0,0-3.1-4.211c-3.529-1.45-7.813,1.694-7.493,5.432.181,2.11.735,4.241-.552,6.215l-2.476,1.122a5.555,5.555,0,0,1-1.179-4.116,7.239,7.239,0,0,0-4.668-7.686q-.031-.645-.062-1.29" fill="#212121"/><path d="M215.14,280.729c4.1-.526,6.027,1.228,5.788,5.4-.123,2.131.831,4.26.059,6.4-3.59-.1-7.067,1-10.715.768-3-.188-3.507-1.372-3.15-4.022.924-6.869,1.864-7.976,8.018-8.548" fill="#f6f5f5"/><path d="M202.187,291.7c-2.413.493-4.571-.623-6.76-1.231-7.936-2.2-8.669-4.5-4.2-11.469,1.009-1.572,1.962-1.257,3.313-.873,3.181.9,6.4,1.676,9.6,2.5L202.187,291.7" fill="#f7f8f8"/><path d="M223.464,291.409c-.133-1.317-.232-2.639-.4-3.952-.916-6.992-.81-6.684,5.578-9.036,6.069-2.235,5.993,3.277,7.662,5.88,1.924,3-1.9,3.165-3.431,3.955a76.925,76.925,0,0,1-8.765,3.357l-.278-.234Z" fill="#f5f4f4"/><path d="M329.76,364.5c.855,3.987-1.652,7.144-3.509,9.893-2.035,3.011-4.874-.693-7.429-1.047-2.637-.366-1.245-2.033-.809-3.288.644-1.849,1.348-3.677,2.026-5.514l-.034.038c2.947-1.109,5.925-.79,8.91-.2a.857.857,0,0,0,.845.114" fill="#f1f1f1"/><path d="M83.392,203.841l11.2,5.081-6.362,5.772c-2.716-3.126-6.154-5.931-4.84-10.853" fill="#e9e8e6"/><path d="M231.268,220.954c-.84.731-1.57,1.765-2.547,2.123-1.533.56-2.169,4.13-5.071.806-2.667-3.055.292-3.886,1.032-5.544.33-.739,1.591-1.063,2.429-1.575.446,2.329,2.032,3.527,4.157,4.19" fill="#20332c"/><path d="M72.467,202.663a29.376,29.376,0,0,1-10.9-6.654,27.086,27.086,0,0,1,12.1,5.581l-1.195,1.073" fill="#20332c"/><path d="M328.915,364.388l-8.91.2c2.925-2.117,5.909-1.563,8.91-.2" fill="#232323"/><path d="M402.007,359.545a9.014,9.014,0,0,1-5.227.887c1.518-1.613,3.411-1.026,5.227-.887" fill="#232323"/><path d="M33.729,354.24c-7.268-1.44-13.572-2.667-19.867-3.944-5.389-1.093-9.05-4.24-10.092-9.673-.884-4.609.894-8.51,4.688-11.313,4.579-3.382,9.467-2.024,14.288-.65,1.517.433,1.495,2.023,1.995,3.211,3.009,7.161,4.978,14.723,8.988,22.369" fill="#fdfdfd"/><path d="M81.515,306.807c3.294-3.809,5.942-8.346,12.059-8.3,8.732.067,14.8,9.355,10.211,16.69-3.656,5.838-8.3,11.083-12.7,16.422-2.317,2.8-1.512-1.237-2.553-1.392-1.166-6.36-4.231-12.083-6.126-18.2-.529-1.709-1.566-3.315-.888-5.223" fill="#fdfdfd"/><path d="M72.323,401.367q-2.975-16.98-5.947-33.961c6.623-2.933,6.612-2.926,10.111,3.33,4.188,7.489,8.3,15.024,12.653,22.418,1.523,2.588,1.073,3.647-1.723,4.491-3.79,1.143-7.467,2.655-11.2,3.985-1.32.47-2.718,1.626-3.892-.263" fill="#fefdfd"/><path d="M65.32,346.23c-2.276-.761-3.84.449-5.466,2.119-3.461,3.554-4.529,3.3-5.639-1.27-.621-2.554-1.609-4.375-4.269-5.519-4.25-1.827-4.311-3.142-.4-5.337,2.545-1.43,3.878-3.045,4.073-6.143.251-4,2-4.632,4.926-1.9a7.6,7.6,0,0,0,7.617,2.091c3.944-.928,4.481,1.138,2.9,4.108-1.273,2.4-1.512,4.386-.078,6.924,2.516,4.45,1.813,5.264-3.662,4.931" fill="#fdfefe"/><path d="M302.285,252.484c-2.4-1.3-1.32-2.908-.454-4.567A108.2,108.2,0,0,0,313.865,190.2c-.549-8.93-2.646-17.682-3.014-26.665-.883-21.548,4.766-41.323,15.556-59.788.756-1.294.943-3.87,3.7-1.522,20.217,17.2,43.181,30.325,65.938,43.678,26.18,15.361,52.452,30.613,80.561,42.326,7.946,3.311,7.98,3.22,3.4,10.652a105.881,105.881,0,0,1-41.286,38.667c-1.328-6.979-3.253-7.2-14.852-1.826-1.34-4.012-.956-8.165-1.351-12.216a53.743,53.743,0,0,0-.918-7.9c-.588-2.332-2.136-4.183-4.988-3.994-2.959.2-3.78,2.24-4.047,4.768-.2,1.928.257,3.957-1.225,6.572-.529-3.284-.857-5.885-1.382-8.445-.614-2.991-1.306-6.239-5.425-5.735-3.8.467-3.943,3.416-3.685,6.432.069.808.01,1.626.01,2.488-6.431-1.958-8.361-.664-8.059,5.8.645,13.86.283,27.56-5.078,40.654-.5,1.221-.75,2.731-1.627,3.581-7.059,6.846-12.355,15.077-18.251,22.837-2.2.107-3.56-1.481-5.17-2.561-5.041-3.381-10.04-6.821-15.238-9.969-2.034-1.231-4.539-2.321-4.136-5.486,8.881-15.942,17.8-31.866,27.185-47.521,4.525-7.545,8.622-15.339,13.187-22.861,2.731-4.5,3.743-4.759,8.447-2.581,2.415,1.118,4.667,2.534,6.987,3.827,5.3,2.956,10.56,2.883,15.34-1.021,4.2-3.431,5.976-8.123,4.641-13.357a13.663,13.663,0,0,0-11.413-10.573c-5.938-1.05-10.228,2.055-13.457,6.683a55.8,55.8,0,0,0-4.332,7.269c-1.546,3.144-3.82,3.944-6.937,2.319-2.945-1.536-5.768-3.289-8.635-4.959-2.407-1.4-2.816-3.512-1.512-5.984,1.7-3.228,3.691-6.3,5.117-9.676a13.3,13.3,0,0,0-5.61-17.06c-6.745-3.591-14.261-1.885-17.992,4.085-3.827,6.123-2.365,13.675,3.564,18.17a75.083,75.083,0,0,0,8.449,5.271c3.565,2.021,3.888,4.5,1.92,7.847-7.749,13.157-15.138,26.521-22.835,39.709-5.521,9.461-10.924,18.992-16.507,28.418-.757,1.278-1.4,2.663-2.823,3.4-3.061.4-5.382-1.469-7.779-2.79-5.32-2.931-11.29-4.672-16.024-8.675" fill="#fff"/><path d="M484.559,188.618c-22.815-4.793-141.225-73.428-153.54-88.8,16.364,1.037,138.626,71.593,153.54,88.8" fill="#fefdfd"/><path d="M366.787,291.618c-.711,5.5-4.694,9.336-7.194,13.912-1.121,2.051-3.063.191-4.4-.38-13.308-5.678-25.646-13.183-38.112-20.44-7.9-4.6-15.59-9.5-23.024-14.83-2.481-1.778-3.035-3.325-1.165-5.962a88.992,88.992,0,0,0,4.985-8.616c.694-1.259,1.4-2.279,3.049-1.521,5.615,1.878,9.81,6.089,14.738,9.094,16.034,9.779,32.074,19.506,49.282,27.141a3.649,3.649,0,0,1,1.845,1.6" fill="#fefefe"/><path d="M348.723,322.337c-1.586-.627-3.168-1.14-4.651-1.855a446.478,446.478,0,0,1-58.06-33.563c-3.634-2.484-4.408-4.651-1.668-8.23,2.185-2.852,2.908-7.992,5.946-8.6,2.3-.464,5.414,3.642,8.314,5.48,18.332,11.627,36.725,23.156,56.688,31.89,1.1.479,2.978.517,1.829,2.562-2.112,3.76-4.283,7.487-6.425,11.23a1.846,1.846,0,0,1-1.973,1.091" fill="#fefefe"/><path d="M383.831,273.11c-.4,4.379-1.948,7.336-3.045,10.4-5.352,14.95-10.848,29.85-16.123,44.827-1.067,3.031-2.064,3.75-5.179,2.161-8.916-4.548-9.134-4.479-4.005-13.3,7.232-12.443,13.734-25.336,22.368-36.927,1.664-2.234,3.571-4.287,5.984-7.159" fill="#fdfefe"/><path d="M286.647,311.9a294.587,294.587,0,0,0,35.924,20.84c-4.162,6.37-7.7,7.456-13.936,4.427a144,144,0,0,1-18.918-10.848c-5.984-4.125-6.736-7.633-3.07-14.419" fill="#fdfefe"/><path d="M366.787,291.618c-14.755-5.177-27.95-13.415-41.273-21.33-8.482-5.038-17.182-9.837-24.592-16.507l1.364-1.3c8.324,2.579,15.553,7.473,23.4,11.052a2.679,2.679,0,0,1,2.643.357c5.12,2.232,9.2,6.581,15.028,7.381.668.366,1.116.822.657,1.638-.205,2.238,1.8,2.518,3.079,3.344,7.053,4.573,14.421,8.686,20.751,14.307l-1.061,1.055" fill="#20332c"/><path d="M221.777,32.341c9.418,11.038,22.113,16.55,35.478,20.825a108.916,108.916,0,0,0,12.577,2.954c2.206.426,2.7,1.137,1.878,3.314C263.156,82.084,245.4,96.919,220.586,95c-3.472-.269-5.675-1.511-7.428-4.678-5.424-9.8-7.018-20.24-6.133-31.221a66.034,66.034,0,0,1,10.4-25.392c1.031-1.5,1.944-4,4.357-1.369" fill="#feffff"/><path d="M201.9,46.658c-6.29-6.716-12.574-7.413-19.436-.666,1.452-4.986,4.648-6.874,9.925-6.717,5.391.159,8.124,2.075,9.511,7.383" fill="#aeadad"/><path d="M200.059,23.038c2.635,6.093,6.23,5.742,10.726,1.335-1.43,4.532-3.24,6.03-6.216,5.422-3.368-.688-5.565-2.487-4.51-6.757" fill="#a6a6a6"/><path d="M185.767,23.451c-.419,3.95-2.839,5.121-6.04,4.692-3.353-.449-5.02-2.516-4.656-7.322,3.045,5.647,6.28,7.418,10.7,2.63" fill="#bdbdbd"/><path d="M134.316,92.816A19.327,19.327,0,0,1,131.92,96c-1.427,1.255-2-.44-2.664-1.166q-21.4-23.545-42.734-47.143c-1.153-1.272-2.342-2.209-.191-3.888,1.645-1.285,2.457-1.537,3.965.143q21.09,23.5,42.324,46.872c.543.6,1.049,1.234,1.7,2" fill="#f6f6f7"/><path d="M127.713,103.615C115.68,90.362,104,77.5,92.316,64.629c-3.677-4.051-7.366-8.094-11.011-12.176-.978-1.095-2.72-1.827-.423-3.806,2-1.723,2.791-1.215,4.208.358,14.429,16,28.848,32.012,43.424,47.879,2.38,2.59.4,4.078-.8,6.731" fill="#f6f5f5"/><path d="M104.044,103.581c.368-3.224.259-6.7,1.087-10.127.684-2.829,2.315-3.8,4.982-3.664,3.354.174,2.231,2.585,2.149,4.393q-.337,7.438-.816,14.868a8.269,8.269,0,0,1-.707,3.353c-1.111,2.031-2.568,4.6-4.977,4.283-2.543-.328-1.138-3.241-1.613-4.979-.72-2.629-.2-5.27-.105-8.127" fill="#f8f8f8"/><path d="M167.492,129.306c2.642,2.914,5.118,5.361,7.252,8.076,2.261,2.875,2.123,6-.69,8.416-2.741,2.355-5.786,2.313-8.424-.377-2.425-2.473-4.72-5.073-7.579-8.168,5.007-.589,7.879-3.358,9.441-7.947" fill="#f8f8f8"/><path d="M163.417,132.323c-6.812-7.51-13.3-14.751-19.9-21.895-2.168-2.347-.735-4.554-.44-8.249,7.551,8.445,14.376,15.918,20.975,23.586,1.433,1.665,1.5,4.007-.634,6.558" fill="#f1f1f1"/><path d="M134.6,89.906c-5.012-5.5-10.05-10.984-15.021-16.524-1.886-2.1-2.347-4.7-.215-6.654,2.339-2.15,4.81-.735,6.49,1.278,5.224,6.259,6.669,14.155,8.746,21.9" fill="#f4f3f3"/><path d="M142.272,112.151c6.353,6.926,12.28,13.377,18.188,19.844.514.562,1.413,1.078.812,2.054-.492.8-1.365.812-2.205.852-2.793.136-4.635-1.5-6.338-3.384-2.894-3.194-5.63-6.546-8.691-9.571-2.645-2.613-3.544-5.37-1.766-9.795" fill="#f1f1f1"/><path d="M101.735,104.828a60.157,60.157,0,0,1-.08,7.914c-.307,2.286-2,4.156-4.382,3.975-2.665-.2-1.779-2.792-1.826-4.409-.125-4.293-.437-8.61.767-12.847.662-2.333,2.017-4.151,4.434-3.886,3.29.362,1.237,3.122,1.53,4.788a26.16,26.16,0,0,1,.053,4.465h-.5" fill="#edecea"/><path d="M114.584,92.958c6,4,8.112,8.7,6.091,15.137-.773,2.464-2.1,3.773-4.544,3.576-2.36-.19-2.628-2.131-2.689-4.047a88.034,88.034,0,0,1,1.142-14.666" fill="#eeedec"/><path d="M86.209,40.615c-.379.561-.658,1.461-1.1,1.55-2.761.561-4.1,2.279-5.247,4.779-.624,1.364-2.554,1.41-3.38-.633-1.242-3.07-2.577-6.1-3.723-9.21-.754-2.043.234-3.749,2.29-2.968,3.542,1.346,6.811,3.419,10.168,5.236.385.208.6.734.994,1.246" fill="#f1f1ef"/><path d="M123.448,102.828c3.009,2.3,3.67,7.379,1.6,9.358a2.194,2.194,0,0,1-2.309.276c-1.037-.275-1.183-.983-.762-1.888a1.959,1.959,0,0,0,.156-.469c.413-2.265.819-4.531,1.314-7.277" fill="#20332c"/><path d="M189.9,277.531c-1.225,2.678-2.393,5.607-3.9,8.348-.612,1.111-1.84.1-2.626-.311a74.2,74.2,0,0,1-6.464-3.714c-6.416-4.223-6.308-4.182-1.361-9.969,1.861-2.178,3.195-2.832,5.6-.636,1.921,1.754,4.424,2.884,6.71,4.222.827.483,1.959.554,2.043,2.06" fill="#f7f6f6"/><path d="M176.514,267.853c-2.109,2.363-3.932,5.3-6.552,7.04-1.914,1.27-3.012-1.755-4.312-3a18.37,18.37,0,0,1-2.563-3.616c-5.7-9.069-4.383-6.708,4.611-10.486.527-.222,1.584-.267,1.806.036,2.316,3.162,4.512,6.412,7.01,10.027" fill="#f5f6f5"/><path d="M156.242,239.493c9.682.284,10.191,7.427,11.8,13.74.73,2.855-1.634,2.807-3.164,3.423-6.851,2.756-6.877,2.732-8.287-4.482a19.5,19.5,0,0,1-.337-3.454c-.046-3.127-.016-6.256-.016-9.227" fill="#f7f6f6"/><path d="M103.889,355.364a25.035,25.035,0,0,0,10.89,11.358c-4.818,2.9-8.519,6.317-10.791,11.5a22.131,22.131,0,0,0-10.739-11.159c4.367-3.154,8.479-6.124,10.64-11.7" fill="#f7f6f6"/><path d="M17.156,291.03,11.9,295.983c-5.387-4.244-5.387-4.244.357-9.762,1.074,1.207,2.124,2.449,3.249,3.62a11.261,11.261,0,0,0,1.647,1.189" fill="#edecea"/><path d="M443.038,323.886c-2.578.977-3.363,4.366-5.625,3.948-1.616-.3-3.965-2.907-3.884-4.368.084-1.522,2.888-4.222,4.151-4.035,1.84.272,3.365,2.667,5.358,4.455" fill="#e4e3e2"/><path d="M127.275,335.52c10.611-4.18,10.868-4.437,14.322-15.019,2.067,3.38,2.037,7.329,4.911,9.981,2.782,2.569,6.144,3.452,10.231,4.208-11.53,6.658-11.53,6.658-15.5,16.317-.928-9.5-5.648-14.221-13.967-15.487" fill="#292928"/><path d="M201,208.751a5.566,5.566,0,0,1,1.485-.09c1.926.4,4.739-1.736,5.669.99.842,2.469-1.031,4.65-2.9,6.44-6.838,6.567-18.917,5.391-22.225-2.128-1.248-2.838-1.045-4.218,2.579-4.288,5.131-.1,10.253-.669,15.378-1.037l.009.113" fill="#222"/><path d="M247.425,224.7c-2.575,2.317-6.914-.709-8.464,3.824-.188.548-1.552.224-1.42-.394.648-3.043-2.837-1.805-4.651-4.333,5.679-.165,10.115-.487,14.535.9" fill="#333"/><path d="M210.856,180.124c-1.85-4.818-5-7.945-11.73-7.749,6.963-3.142,12.366,1,11.73,7.749" fill="#323232"/><path d="M200.464,190.669c-1.233-5.32-3.806-7.846-9.714-4.655,2.012-3.411,4.06-4.316,6.612-3.177,3.25,1.449,4.7,3.925,3.1,7.832" fill="#292929"/><path d="M248.255,276.54c-2.594,3.011-4.79,5.865-7.95,7.162-2.872,1.177-2.829-2.374-4.037-3.782-.83-.966-2.787-2.588-1.446-3.65,1.874-1.483,3.833-3.945,6.91-2.66,2.079.869,4.114,1.843,6.523,2.93" fill="#f1f1f1"/><path d="M344.018,272.912l-1.011-1.257c-1.013-2.005.313-3.524,1.186-5.034q17.43-30.165,34.838-60.344c5.078-8.791,5.114-8.658-3.745-13.744-2.56-1.47-4.046-1.367-5.59,1.317-8.935,15.529-17.786,31.108-26.832,46.574-4.186,7.159-8.536,14.226-12.343,21.6-.606,1.173-1.249,2.379-2.758,2.646l-2.073-1.137c14.045-24.279,28.037-48.589,42.21-72.794,1.588-2.713.623-3.681-1.52-4.854-3.05-1.669-6.123-3.326-9.025-5.233a14.678,14.678,0,0,1,14.2-25.581c7.485,3.542,10.968,11.3,7.971,18.609a79.689,79.689,0,0,1-5.665,10.5c-1.256,2.1-1.428,3.378,1.147,4.6,3.869,1.838,7.781,5.977,11.255,5.569,3.325-.391,4.443-6.386,6.621-9.862,4.6-7.336,13.237-9.615,20.347-5.415,7.141,4.219,9.675,12.817,5.837,19.81-4.045,7.37-12.256,9.817-20.1,5.894a63.149,63.149,0,0,1-7.791-4.43c-2.816-1.954-4.233-1.6-6.019,1.555-11.518,20.365-23.27,40.6-34.976,60.854-1.979,3.426-4.1,6.768-6.161,10.149" fill="#20332c"/><path d="M327.764,264.673Q348.8,228.01,369.8,191.329c1.027-1.8,1.816-2.132,3.8-1.171,12.613,6.1,12.6,6.018,5.673,18.092q-18.178,31.677-36.268,63.4c-1.343,1.8-2.632.57-3.84-.139-3.822-2.246-7.606-4.557-11.4-6.843" fill="#fefefe"/><path d="M236.82,82.459c-5.442,5.019-12.011,4.753-17.2-.058-3.887-3.608-4.594-7.738-1.236-12.618-.87,6.093.5,10.37,5.21,12.955,4.4,2.416,8.8,1.061,13.222-.279" fill="#313131"/><path d="M241.358,65.355c1.435-3.231,3.9-3.868,6.848-2.529a5.438,5.438,0,0,1,3.368,6.465,1.61,1.61,0,0,1-.89,1.047,1.009,1.009,0,0,1-1.348-.985c-.286-5.855-3.6-5.377-7.978-4" fill="#484847"/><path d="M224.829,60.282c-2.009-6.714-2.009-6.714-8.832-5.472,1.8-3.046,4.478-3.835,7.371-1.958,2.782,1.805,3.857,4.108,1.461,7.43" fill="#2e2e2e"/><path d="M133.868,335.307a26.323,26.323,0,0,0,7.9-7.507,24.644,24.644,0,0,0,7.306,7.233c-2.446,2.557-5.462,4.339-7.048,7.681-2.6-2.755-4.523-5.623-8.163-7.407" fill="#eeedec"/><path d="M205.958,210.428c-2.811,7.763-14.759,10.533-19.619,4.968-.738-.846-1.777-1.8-1.321-3.006.416-1.107,1.713-.606,2.613-.675,6.039-.461,12.083-.856,18.327-1.287" fill="#f5f4f4"/><path d="M418.726,192.141a12.535,12.535,0,0,1-16.588,11.822,19.134,19.134,0,0,1-1.835-.757c-12.515-5.86-12.909-7.358-4.93-18.666,3.254-4.612,9.022-6.679,13.963-5,5.8,1.968,9.4,6.795,9.39,12.6" fill="#fdfdfd"/><path d="M378.49,170.242c-.28,4.724-4.629,9.235-7.256,14.518-.643,1.294-1.505.821-2.436.265-3.7-2.2-7.6-4.111-11.084-6.6a12.151,12.151,0,0,1-3.681-15.16,12.565,12.565,0,0,1,14.338-7.221c5.757,1.255,10.113,6.674,10.119,14.2" fill="#fdfdfd"/></g></svg>