<svg xmlns="http://www.w3.org/2000/svg" xmlns:xlink="http://www.w3.org/1999/xlink" width="553.082" height="452.586" viewBox="0 0 553.082 452.586"><defs><clipPath id="a"><rect width="553.082" height="452.586" fill="none"/></clipPath></defs><g clip-path="url(#a)"><path d="M353.949,262.658c.114-1.066-.506-1.612-1.015-2.267-13.132-16.883,3.344-38.719,18.546-41.088,4.971-.774,8.728,2.166,13.03,4.4,3.407,1.769,9.074-1.72,13.467,1.677,6.362,4.916,7.613,12.109,8.66,19.293.343,2.358.938,3.6,3.065,4.944a8.6,8.6,0,0,1,1.781,13.293c-1.4,1.5-1.175,2.552-1.03,4.267.414,4.938,1.024,9.961-.222,14.855-4.22,16.565-18.21,17.727-30.613,12.21-1.174-.522-2-1.783-3.665-1.66-1.374,5.936,1.077,10.925,3.932,15.769a161.127,161.127,0,0,0,15.945,22.694c3.734,4.385,4.546,10.183,8.861,14.459,4.37,4.328,8.8,6.983,14.711,8.1,16.392,3.105,32.729,6.494,49.081,9.807a6.482,6.482,0,0,0,5.193-.854c4.5-2.932,9.954-3.219,14.849-5.124,3.037-1.182,4.573.451,3.469,3.594a51.19,51.19,0,0,1-3.148,6.221c4.339,1.545,8.293.448,12.176-1.559,1.91-.988,3.88-2.014,5.96-.194,1.99,1.741,1.636,3.726.514,5.89,2.487.005,5.252-.8,5.828,2.488.533,3.04-1.618,4.489-4.028,5.489-2.275.945-4.619,1.719-7.565,2.8a6.311,6.311,0,0,0,1.022.335c2.99.236,6.828.2,6.468,4.266-.326,3.681-4.108,3.208-6.865,3.067-9.113-.466-18.57-.046-27.037-3.454-7.12-2.864-14.107-2.733-21.306-2.755q-21.211-.071-42.423-.015c-9.315.028-17.023-3.3-23.169-10.39-4.244-4.893-8.856-9.466-13.054-14.395-3.9-4.581-10.166-5.456-14.231-10.145-5.3-6.112-11.887-11.092-17.778-16.707-1.574-1.5-2.607-1.744-4.6-.635-15.29,8.486-30.624,16.9-46.067,25.1-2.632,1.4-1.146,2.614-.566,3.872,4.262,9.274,7.843,18.795,11.242,28.421,4.271,12.1,3.935,23.278-4.47,33.526a2.888,2.888,0,0,0-.522,3.067q1.91,7.125-5.11,7.144c-38.763.054-77.526-.013-116.289.1-2.842.008-4.334-2.477-7.182-2.578-2.351-.084-3.934-.084-4.289,2.341-.772,5.269-4.314,6.066-8.4,4.9-7.461-2.123-12.9-.164-16.7,6.677a18.45,18.45,0,0,1-6.946,6.98c-2.4,1.395-4.785,2.224-7.27.108a6.177,6.177,0,0,1-2.082-7.087c2.141-7.551,4.052-15.167,6.235-23.441-9.44,2.155-18.544,4.176-27.619,6.321-7.675,1.817-15.279,3.957-23,5.556-2.061.427-4.946,2.976-6.737-1.194-.538-1.25-11.52,2.192-12.736,3.944-1.792,2.58-3.8,3.582-7.168,2.666-7.084-1.931-13.383-1.392-17.131,6.47-1.148,2.409-3.629,4.3-5.783,6.082-2.5,2.068-5.316,3.28-8.546,1.114-3.184-2.136-2.565-5.22-1.943-8.086,1.071-4.942,2.478-9.815,3.8-14.7,1.927-7.146,3.849-14.295,5.87-21.414,1.69-5.95,4.575-7.383,10.359-4.948,5.748,2.42,11.774,4.166,17.2,7.41,2.6,1.558,8.159-1.192,9.955-4.223.862-1.456,2.7-1.566,4.24-2.049,29.416-9.215,58.8-18.551,88.261-27.606,3.909-1.2,5.739-3.12,6.936-6.963a291.674,291.674,0,0,1,21.731-52.315,60.944,60.944,0,0,1,24.252-25.01,20.235,20.235,0,0,0,2.431-1.686c.209-.159.282-.495.5-.9-6.633-.051-12.513,1.1-16.233,7.382-1.374,2.319-3.329,4.456-6.477,3.359-3.585-1.249-1.752-3.935-1.377-6.23a22.362,22.362,0,0,0,.026-3.28c-4.026,1-5.627,4.631-8.421,6.722-2.43,1.819-4.071,5.9-8.334,1.39-1.251-1.323-4.071-1.493-5.258-4.332-1.178-2.817-3.09-2.9-5.655-.149-22.784,24.418-43.87,50.279-65.18,75.952-3.143,3.787-1.434,9.227-4.761,13.055-1.683,1.938-2.362,4.717-3.681,7.008-1.945,3.378-4.814,3.994-7.974,1.865-8.665-5.842-17.232-11.831-25.855-17.735-2.128-1.457-3.246-3.294-2.562-5.921.715-2.75,2.85-3.448,5.324-3.582a20.01,20.01,0,0,1,8.77,1.086,7.758,7.758,0,0,0,9.06-2.045c4.7-4.906,9.838-9.278,13.53-15.262,12.5-20.265,25.738-40.082,38.231-60.354,7.7-12.485,14.707-25.4,21.721-38.293,4.422-8.127,10.541-14.858,16.725-21.519,12.322-13.272,24.692-26.516,37.518-39.294,3.9-3.888,4.1-7.7,3.437-13.507-7.983,12.382-18.856,11.38-30.038,8.382-11.486-3.079-22.9-6.43-34.306-9.8a12.941,12.941,0,0,0-7.731-.172c-6.324,1.828-12.735,2.7-18.547-1.815-1.59-1.235-3.542-.558-5.331-.651-3.167-.167-5.838-.375-7.988-3.706-1.848-2.865-5.823-1.017-8.831-1.2-5.485-.34-7.776-2.211-8.654-7.564-.532-3.245-1.284-6.456-1.825-9.7q-2.27-13.6-4.432-27.223c-.78-4.95.672-6.8,5.7-6.819q30.943-.106,61.888,0c5.375.018,7.432,2.448,8.533,8.912,1.916,11.244,4.054,22.453,5.854,33.716.334,2.088.816,2.673,2.925,2.8,11.659.7,11.721.793,16.149-9.9,5.288-12.769,10.7-25.472,16.688-37.941,4.191-8.723,10.8-13.352,20.3-14.416,3.093-.346,6.089-1.479,9.165-2.059,4.535-.855,3.869-4.513,3.822-7.443-.048-3-2.726-1.33-4.143-1.459-8.989-.83-13.17-6.52-11.529-16.958.491-3.12-.3-3.518-2.949-3.945q-20.8-3.36-41.548-7.081c-6.971-1.238-10.754-6.144-9.688-13.238q2.743-18.276,6.249-36.431C168.9,2.29,173.959-.97,181.366.25c14.37,2.366,28.73,4.8,43.059,7.4,6.867,1.245,10.376,7.18,9.037,13.991-1.524,7.757-2.741,15.576-4.127,23.576,2.033-.737,3.39-1.684,3.663-3.767.929-7.1,6.011-9.645,12.143-11.225,6.029-1.554,10.848.545,14.635,4.928,1.726,2,3.164,3.112,5.956,3.488a15.1,15.1,0,0,1,13.135,14.183c.94,12.121,6.412,22.319,12.224,32.5.894,1.564,1.583,1.941,3.448,1.217,6.781-2.629,13.674-4.967,20.532-7.4,1.85-.656,2.894-2.169,4-3.62,5.813-7.643,11.394-15.477,17.521-22.859,2.651-3.194,2.042-5.206-.154-8.05-1.666-2.159-6.053-3.846-3.918-7.091,2.43-3.695,5.512.323,8.347.813,1.315.226,2.744,2.171,3.988.4a5.34,5.34,0,0,0,.856-4.75c-.714-2.192-1.288-4.442-2.163-6.567-.755-1.836.485-2.646,1.35-3.839,2.139-2.952,3.734,3.487,6.169.128,2.3-3.164,4.707-2.114,6.49.989.489.851.935.054,1.487-.144,4.088-1.461,5.612-.39,5.8,3.937.389,8.96.384,8.981,9.477,11.058,8.7,1.987,17.471,3.7,26.087,6a13.324,13.324,0,0,0,8.624-.651c8.2-3.057,16.422-6.078,24.675-9,7.121-2.523,11.822-.316,14.424,6.826q17.307,47.481,34.5,95c3.135,8.672,1.3,12.457-7.316,15.6q-72.222,26.339-144.456,52.644c-7.884,2.873-12.078.933-15.015-7.063-5.783-15.752-11.678-31.465-17.118-47.335-1.518-4.426-3.925-6.52-8.33-7.526-9.072-2.076-8.832-2.22-10.506,7.2-2.306,12.976-4.246,25.974.211,38.79,2.52,7.246,6.122,14.108,8.949,21.257a66.765,66.765,0,0,1,4.941,22.586c.119,3.916,1.8,4.942,5.474,3.858a50.653,50.653,0,0,1,12.755-1.806c9.264-.308,16.746,2.918,22.419,10.459a122.236,122.236,0,0,0,10.393,12.043c2.337,2.384,4.9,5.075,8.917,4.226" fill="#20332c"/><path d="M428.669,318.533c1.748-6.689,3.885-15,6.094-23.286q5.928-22.239,11.926-44.46c2.3-8.549,7.424-11.408,15.959-9.122q39.868,10.676,79.765,21.254c9.266,2.464,12.294,7.369,9.867,16.4q-8.8,32.754-17.728,65.475c-1.909,6.995-7.207,10.339-13.857,8.562q-41.991-11.217-83.928-22.635c-5.314-1.443-8.118-5.25-8.1-12.188" fill="#20332c"/><path d="M46.976,312.074c-4-.26-7.124.6-8.989-3.763-1.987-4.648-1.529-7.819,2.688-10.4,2-1.224,2.061-2.653,1.089-4.6-.73-1.461-.854-3.243-1.66-4.645-7.081-12.329-6.186-24.425,1.088-36.247,2.815-4.576,2-7.227-3.205-8.94-13.794-4.538-21.654-14.36-24.548-28.379-.609-2.947-1.93-4.736-5.309-4.1-4.8.911-6.117-2.444-7.572-6-1.534-3.748.3-5.963,2.981-7.83,11.269-7.857,23.928-12.585,37.1-16.041A62.314,62.314,0,0,1,54.313,178.9c4.3-.152,5.891,1.838,7.335,5.577s.638,6.394-2.351,8.076c-3.163,1.781-3,4.055-1.662,6.378,7.815,13.527,6.09,26.672-1.4,39.572-1.841,3.17-1.213,4.938,2.178,6,.616.192,1.1.8,1.721.982,14.854,4.38,21.724,15.549,25.1,29.6.834,3.474,2.094,5.639,6.3,4.921,3.482-.594,5.266,1.542,6.447,4.778,1.171,3.209,1.819,5.8-1.3,8.361a47.366,47.366,0,0,1-8.717,5.632c-13.2,6.69-26.966,11.646-40.984,13.3" fill="#20332c"/><path d="M342.873,420.487c-1.327-8.373-2.67-16.744-3.972-25.121-.532-3.422-.758-6.908-1.525-10.272-.612-2.68-.121-3.835,2.765-3.387,11.112,1.728,22.229,3.432,33.338,5.179,2.276.357,3.583,1.2,1.248,3.349-.486.447-.932.938-1.4,1.41-7.074,7.191-7.068,7.185-.069,14.143,3.883,3.859,7.658,7.83,11.646,11.577,1.754,1.648,1.608,2.559.022,4.327-9.38,10.455-9.319,10.5-19.118.658-2.925-2.939-6.105-5.664-8.744-8.839-2.378-2.861-3.982-2.308-6.005.192-2.07,2.557-4.349,4.946-6.537,7.408l-1.653-.624" fill="#20332c"/><path d="M437.629,181.4c7.5-4.9,21-1.681,26.5,7.118,6.827,10.917,17.745,19.471,19.2,34.676,2.465-4.162,4.148-7.006,5.832-9.85l1.312.692c-1.508,4.224-3.957,8.031-6.339,11.855a1.376,1.376,0,0,1-1.311.284c-3.884-2.205-8.286-3.632-10.926-7.933l9.747,4.937c-2.321-9.121-5.745-17.02-12.376-23.861-1.346,3.8-2.343,7.241-6.054,8.9a7.6,7.6,0,0,1-5.3.654c-3.81-1.113-5.715-3.846-5.432-7.837.341-4.809,4.168-6.977,12.71-7.09-6.152-11.315-15.767-14.143-27.568-12.549" fill="#131313"/><path d="M251.538,393.746c-7.777-9.927-14.886-19.038-22.038-28.116-6.023-7.645-5.592-7.408-1.459-15.909,3.179-6.539,7.353-9.505,14.61-8.3,2.05.342,4.435.57,6.441-.458l-.066-1.382c-5.307,0-10.615-.063-15.921.034-1.8.033-2.222,1.842-2.933,3.064-8.3,14.278-17.36,28.189-24.57,43-6.644,13.651-17.236,20.054-31.307,22.908-31.495,6.388-62.683,14.132-93.9,21.737-3.341.814-5.261.6-6.062-3.33a102.74,102.74,0,0,0-4.466-16.607c-1.52-3.928.229-4.811,3.17-5.727,29.723-9.265,59.425-18.6,89.181-27.759a6.78,6.78,0,0,0,5.137-5.068c6.927-20.78,14.193-41.465,26.126-60.051a55.406,55.406,0,0,1,26.04-21.563c5.613-2.316,11.667-2.056,17.605-2.424,1.9-.118,2.225,1.285,2.715,2.311,3.976,8.32,8.525,16.458,11.519,25.128,2.5,7.243,3.611,15.074,4.508,22.741,1.958,16.753,3.432,33.565,5.014,50.361.559,5.934.855,11.892,1.275,17.839.046.642.42,1.615.135,1.872-6.22,5.617-4.314,13.357-5.11,20.277-.332,2.883-1.8,2.146-3.2,2.153-10.146.048-20.292.027-30.438.027-14.8,0-29.608-.086-44.41.07-3.043.032-4.063-.722-3.886-3.858.281-4.972-1.22-10.472.45-14.822,1.747-4.551,8.446-2.906,12.411-5.377.828-.516,1.986-.607,2.665-1.242,9.824-9.208,22.586-6.845,34.246-8.624,8.45-1.289,17-1.892,26.521-2.909" fill="#fff"/><path d="M482.274,143.559c-.454,3.9-2.71,6.24-6.553,7.621-20.685,7.439-41.32,15.014-61.975,22.536q-41.482,15.108-82.972,30.2c-7.455,2.709-10.551,1.274-13.276-6.164q-15.7-42.861-31.4-85.721c-.982-2.663-.718-3.8,2.187-4.852q78.529-28.359,156.952-57.015c2.464-.9,3.279-.681,4.175,1.8q15.841,43.825,31.861,87.587a40.227,40.227,0,0,1,1.006,4.01" fill="#fff"/><path d="M344.28,330.072c3.41-2.1,7.275-.447,10.671-2.535-7.188-1.8-14.2.151-24.255,5.813-15.084,8.5-30.311,16.737-45.491,25.063a15.68,15.68,0,0,1-2.679.737c2.02-10.442.191-20.67,3.2-30.7,1.44-4.8.7-10.21.989-15.334.658-11.633,2.967-22.941,5.249-34.289a142.268,142.268,0,0,0,2.952-33.98c-.134-3.248.7-4.847,4.224-5.093,3.588-.25,7.118-1.249,10.7-1.759,13.114-1.87,21,5.823,27.893,15.324,1.308,1.8-.222,3.076-.725,4.541-4.538,13.23-5.937,26.4,3.61,38.029,8.925,10.872,20.741,16.226,35.031,14.765a4.534,4.534,0,0,1,5.049,2.585,181.3,181.3,0,0,0,14.683,20.6c1.871,2.366,1.293,3.1-.866,4.342-7.736,4.433-15.517,8.808-23.028,13.6-2.559,1.633-3.56.216-4.968-1.085-7.3-6.75-14.586-13.522-22.236-20.621" fill="#fff"/><path d="M258.679,185.23c4.624,0,9.253.133,13.869-.049,2.849-.113,4.9.345,5.111,3.7a15.969,15.969,0,0,0,.561,2.422c.424,1.87,2.813,4.043,1.433,5.33-1.572,1.468-4.425.521-6.684-.008-8.027-1.882-14.995-5.977-21.48-10.838a12.47,12.47,0,0,0-8.192-2.7c-9.811.144-19.63-.086-29.438.132-3.124.069-4.178-.8-3.776-3.866a20.583,20.583,0,0,0-1.5-9.741c-4.417-11.823-3.368-23.208,1.165-34.747,1.635-4.162,3.487-8.5,2.96-13.331-3.489,7.241-5.191,15.1-7.829,22.628-2.936,8.382-1.012,16.276,1.9,25.865-8.349-7.682-17.51-9.063-27.248-10.052,6.909-17.148,13.475-34.129,22.182-50.156,2.844-5.236,7.987-7.773,13.551-9.385,2.426-.7,3.8.143,5.023,2.53,5.477,10.709,11.339,21.223,16.8,31.941,1.98,3.886,3.216,3.472,5.665.384,9.275-11.692,18.766-23.213,28.183-34.792,2.447-3.009,7.874-2.821,9.135.542,5.173,13.788,10.144,27.652,15.539,42.446-4.466-1.241-8.057-2.165-11.6-3.248-2.435-.744-3.848-.632-4.477,2.45-2.486,12.192-5.2,24.351-3.607,36.906.366,2.886-.309,3.8-3.255,3.659-4.649-.223-9.317-.059-13.977-.059q-.009,1.019-.017,2.038" fill="#fff"/><path d="M119.864,154.337c-1.378-1.816-2.489-3.427-3.755-4.9-1.035-1.211-1.985-2.8-4.092-1.644-2.125,1.172-2.684,2.847-1.782,5,1.519,3.617,3.122,7.2,4.95,11.394-7.4,0-14.6.028-21.8-.011-3.4-.02-4.487-2.489-4.966-5.231-2.186-12.489-4.195-25.01-6.475-37.482-.571-3.126.382-4.438,3.393-4.438q31.665-.009,63.33.011c4.083,0,4.793,3.261,5.323,6.025,1.922,10.033,3.564,20.119,5.214,30.2,2.077,12.685,2.286,10.8-9.384,10.975-9.57.143-9.573.035-12.4-9.138-.243-.789-.394-1.61-.687-2.376-.687-1.8-.818-4.006-3.237-4.606-3.065-.759-2.914,2.52-4.473,3.723-2.181-2.909-1.259-9.252-7.06-7.662-6.079,1.667-.222,6.591-2.093,10.168" fill="#fff"/><path d="M486.846,381.592c6.261,1.083,11.866,2.093,17.488,2.99,1.2.192,2.622.225,2.773,1.559.184,1.618-1.4,1.657-2.485,1.6-11.676-.617-23.563-.028-34.423-5.6-1.61-.827-3.254-.505-4.879-.508-17.464-.035-34.928-.125-52.39.02-9.155.076-16.861-2.756-23.009-9.7-5.494-6.2-11.144-12.268-16.953-18.644,7.26-4.316,14.2-8.378,21.065-12.564,1.873-1.142,3.411-1.324,4.607.679,6.7,11.229,17.673,14.161,29.608,16.067,13.514,2.159,26.872,5.288,40.31,7.934,1.588.312,3.347.833,4.83-.3,4.211-3.229,9.64-3.209,14.241-5.4.635-.3,1.446-1.105,2.256-.34,1.034.977.141,2.025-.366,2.638-4.211,5.1-7.415,11.338-14.723,13.142,3.955,1.311,6.705-.638,8.958-3.169,1.583-1.779,3.174-2.848,5.522-2.344,4.588.987,8.77-.168,12.847-2.181,1.266-.626,2.892-1.814,3.849.2,1.046,2.2-1.151,2.863-2.435,3.51-4.632,2.334-9.332,4.606-14.941,3.9,3.49,1.827,6.943,2.82,10.645,1.6,2.665-.876,5.225-2.1,7.924-2.83,1.241-.334,3.278-1.552,3.935.377.628,1.845-1.27,2.721-2.812,3.362-5.428,2.256-10.986,3.7-16.936,2.686-1.225-.208-2.522-1.054-4.506,1.313" fill="#fff"/><path d="M232.511,57.651c-1.5-1.531-2.189-.778-2.938-.667s-1.885,1.452-2.282-.226c-.255-1.076-.186-2.533,1.63-2.311,1.336.164,2.461,0,2.478-1.55.012-1.148-.834-1.63-2.052-1.579-1.323.056-1.1-.717-.729-1.6a7.133,7.133,0,0,1,10.057-3.537c1.879-1.251-2.587-3.305.54-4.352,3.713-1.243,7.9-1.869,11.135.015,2.92,1.7-1.16,4.669.177,7.836-2.9-.653-5.134-2.178-7.42-.839.223,2.127,1.74,1.26,2.7,1.512,2.35.617,4.093,1.44,4.4,4.455.541,5.349,3.976,10.205,2.376,16.305,3.21-1.5,5.857-3.035,8.652-.4a5.683,5.683,0,0,1,1.485,6.373c-1.012,3.149-3.577,4.156-11.709,4.558,5.641,2.177,5.119,6.42,4.969,10.311-.131,3.43,1.167,4.667,4.544,4.683a99.845,99.845,0,0,1,10.039,1.071L239.868,135.5c-6.5-12.139-12.672-23.671-18.85-35.211.924-1.724,2.772-1.525,3.944-1.655,5.541-.615,8.623-2.894,8.232-9.007-.268-4.188,4.241-2.508,6.252-4.007-.774-2.11-2.271-1.225-3.4-1.153-2.144.136-4.271.588-6.415.686-11.235.513-13.435-5.877-11.958-15.979.153-1.049.293-2.406,1.733-2.776,5.352-1.377,8.024-6.477,13.109-8.747" fill="#feffff"/><path d="M170.085,47.746c1.367-7.843,2.933-16.787,4.482-25.735.559-3.228,1.137-6.454,1.6-9.695.958-6.634,4.481-9.812,11.173-8.836,12.416,1.812,24.786,3.981,37.122,6.285,5.4,1.009,8.147,5.8,7.148,11.222q-3.273,17.768-6.506,35.542c-1.131,6.2-4.648,9.023-10.715,8.032-12.384-2.023-24.743-4.2-37.087-6.451-4.745-.865-7.327-4.382-7.222-10.364" fill="#fefefe"/><path d="M281.969,97.041c.061-2.734,2.932-4.762,6.823-6.171Q329.333,76.2,369.827,61.4q32.125-11.71,64.232-23.476c3.106-1.14,6.118-1.666,8.97.445,2.731,2.021,3.805,5.314,4.011,8.237.127,1.8-3.354,1.957-5.255,2.65q-76.059,27.7-152.158,55.286c-5.556,2.017-7.564.546-7.658-7.5" fill="#fefefe"/><path d="M154.473,300.005c-15.261,17.975-30.3,35.649-45.285,53.36-4.173,4.93-8.191,9.99-12.334,14.947-.7.835-1.248,2.508-2.447,2.078a3.361,3.361,0,0,1-2.063-3.528c.26-2.73-.45-5.158-3-6.27-4.157-1.815-2.44-4.037-.877-6.479q19.5-30.468,38.969-60.959c5.216-8.17,5.212-8.2,13.05-2.857,4.641,3.163,9.231,6.4,13.988,9.708" fill="#fff"/><path d="M389.382,234.716c2.639,1.97,5.43,2.733,8.412,1.182,2.035-1.06,2.418.306,3.058,1.732,5.911,13.162,8.115,27.053,7.841,41.345-.112,5.838-2.626,7.943-8.336,7.8a15.141,15.141,0,0,0-8.035,1.911c-3.707,2.069-6.908,1.018-9.807-1.813a36.424,36.424,0,0,1-8.07-12.332c-3.068-7.4-5.685-14.985-8.928-22.3-1.307-2.949-.666-3.317,2.1-3.355,10.1-.135,17.834-4.084,21.769-14.17" fill="#fefefe"/><path d="M269.887,329.351c4.124.192,9.238-.971,12.016,1.06,1.8,1.312.33,7.31.056,11.189-1.119,15.847-2.343,31.686-3.526,47.528-.148,1.985-.375,3.969-.4,5.955-.055,4.118,1.211,8.984-6.045,7.708-2.038-.358-3.057,2.233-4.414,3.632-.685.706-1.465,1.459-2.58.949-.944-.432-.68-1.439-.751-2.193-1.094-11.69-2.094-23.389-3.221-35.076-1.172-12.161-2.324-24.327-3.781-36.455-.4-3.329.245-4.489,3.676-4.17,2.964.276,5.975.057,8.964.057,0-.061.005-.123.008-.184" fill="#fff"/><path d="M131.491,163.829c1.7-4.716-.179-9.183,1.185-14.557,3.285,5.214,3.931,10.279,5.349,15.015.753,2.511.937,4.416,4.051,2.087.753-.563,2.266-.125,3.43-.125,9.481-.006,18.961-.033,28.441.008,2.739.012,5.372-.115,7.146-2.6a2.55,2.55,0,0,1,2.535-1.206c7.635,1.043,14.959,2.8,20.817,8.367,1.817,1.726,1.876,3.052.452,5.083-4.737,6.752-12.173,9.055-22.215,6.809-13.255-2.965-26.247-6.863-39.193-10.92a12.361,12.361,0,0,0-8.157-.1c-6,2.018-12.059,2.314-17.593-1.64-1.8-1.289-3.847-.666-5.79-.855-2.029-.2-4.378.424-5.88-2.735h12.71c-2.315-4.732-4.314-8.6-6.091-12.576-.544-1.216-1.616-3.084.151-3.929,1.465-.7,2.185,1.239,2.9,2.211,2.9,3.952,5.637,8.023,8.971,11.847.93-4.21-1.755-7.682-2.073-11.5-.173-2.087-3.567-5.19.218-6.278,2.936-.844,2.59,3.1,3.452,4.973,1.9,4.128,3.478,8.408,5.186,12.626" fill="#fefefe"/><path d="M176.845,298.817c1.346-6.358,6.866-9.308,8.72-15.506-5.779,3.572-6.891,10.749-13.5,12.834.9-4.073,3.677-6.43,4.932-9.515.963-2.366,5.533-3.747,2.343-7.472a17.874,17.874,0,0,1,1.75-1.612c2.806-2.194,6.191-3.948,9.537-3.537,16.425,2.013,30.6-5.253,45.29-10.4,6.153-2.154,6.058-2.265,7.247,4.318.822,4.545,1.791,9.064,2.736,13.586.628,3.009.045,4.327-3.608,4.381-10.46.151-20.915.79-31.367,1.324a16.556,16.556,0,0,0-13.91,8.207c-.763,1.222-1.7,2.877-3.45,2.332-2.434-.76-.369-2.488-.428-3.758-.1-2.073,1.117-4.63-1.327-5.864-2.178-1.1-3.6,1.109-5.093,2.256-3.147,2.419-5.453,5.819-9.876,8.424" fill="#fefefe"/><path d="M169.585,275.255c9.336-4.652,18.443-9.525,27.262-14.984,11.492-7.114,23.271-13.766,34.909-20.645,5.527-3.267,5.858-9.208.786-13.512-2.292-1.945-4.993-3.5-6.975-7.364,3.862,1.252,5.22,4.262,8.245,5.6.6-5.256-2.566-9.94-1.4-15.631,2.947,4.468,2.653,9.231,3.479,13.521,2.1,10.877,3.325,21.916,5.2,32.839.6,3.511-.5,4.825-3.74,5.915-9.03,3.039-17.961,6.388-26.849,9.826-3.738,1.446-7.5.942-11.268.92-7.283-.041-14.532-.063-20.648,5.1-.7-1.9,1.411-2.7,1.034-4.411-3.468.484-6.156,3.607-10.041,2.822" fill="#fefefe"/><path d="M303.97,402.194c.535,6.943-2.016,12.726-6.019,18-1.139,1.5-2.135,2.69-4.329.9-1.582-1.291-3.853-1.839-5.9-2.436a6.266,6.266,0,0,1-4.693-4.534c-1.206-5.005-2.922-10.106-2.87-15.152.118-11.4,1.234-22.791,1.833-34.192.208-3.966,3.518-4.654,6.082-5.509,2.371-.79,2.138,2.192,2.837,3.553,4.97,9.669,8.216,20.025,11.816,30.236a21.817,21.817,0,0,1,1.243,9.128" fill="#feffff"/><path d="M405.058,288.85c-6.04,7.144-12.864,6.963-20.08,5.208s-11.75-7.036-15.854-12.776a1.769,1.769,0,0,0-.026,2.922c4.531,4.026,4.609,9.269,4.9,14.765.153,2.927-.821,3.348-3.017,3.578-16.811,1.762-32.554-16.135-28.618-32.536.23-.957.333-1.943.55-2.9.817-3.618,1.339-5.579,6.485-3.564,5.123,2.005,9.022,2.607,7.726,9.541-.519,2.779,2.678,4.737,5.552,5.505,2.452.655,4.707.243,6.357-1.978-1.154-1.193-1.945-.4-2.878-.123-3.461,1.044-6.128-.483-7.087-3.622-1-3.286-.6-6.811,3.483-8.1,3.487-1.1,6.077.212,7.3,3.775A61.057,61.057,0,0,0,378.6,285.61c4.5,5.982,8.493,7.112,15.318,4.378a11.506,11.506,0,0,1,3.245-1.087c2.308-.168,4.636-.051,7.9-.051" fill="#fefefe"/><path d="M50.325,424.6c-1.468,2.673-.378,5.736-1.688,8.439-.629,1.3-1.27,2.057-2.487,1.615-1.176-.428-.736-1.642-.459-2.575.83-2.792,1.612-5.569-.819-8.6-1.317,4.562.754,9.853-4.606,12.934.429-8.131.891-15.822-5.253-21.869,1.913,5.467,4.071,10.841,3.488,16.839-.731,7.525-4.325,13.343-10.194,17.881-1.67,1.292-3.459,1.791-5.491.513s-1.685-3.321-1.287-4.921c3.212-12.9,6.49-25.777,10.031-38.585.856-3.1,3.743-3.6,6.573-2.528,5.09,1.928,10.121,4.013,15.161,6.069,2.03.828,3.274,2.28,3,4.6-.469,3.988.873,7.307,3.138,10.563,2.35,3.377-.267,6.594-1.366,9.626-.838,2.313-3.215,1.306-5.225,1.057-2.42-.3-2.635-1.19-2-3.243a9.364,9.364,0,0,0-.517-7.817" fill="#fefefe"/><path d="M222.3,359.7l25.488,32.5-46.439,4.794L222.3,359.7" fill="#fefefe"/><path d="M81.395,383.648c.195-6.669-3.673-11.2-8.3-15.859,4.689-.133,5.946,3.929,8.953,5.711,1.009-4.215-3.659-4.711-4.657-7.741,4.013-.883,4.719,3.466,7.572,4.6.846-2.923-1.57-3.954-3.044-5.443-.824-.832-2.74-1.172-1.31-2.9.914-1.1,1.929-2.983,3.5-2.2,2.67,1.342,6.056,2.377,6.192,6.247.055,1.55.105,3.191,1.176,4.19,4.467,4.164,2.262,7.917-.014,12.2C85.747,393.2,86.715,392.77,77.2,386.1c-6.367-4.462-12.816-8.806-19.235-13.193-1.546-1.056-3.146-2.162-2.5-4.349.661-2.243,2.727-2.079,4.5-2.159a19.485,19.485,0,0,1,19.3,14.14c.343,1.234-.035,2.745,2.124,3.106" fill="#feffff"/><path d="M272.089,412.823c2.868.424,5.738-1.423,9.113,1.031-3.246,1.185-6.7.194-9.23,3.283,3.649,1.008,7.465-2.434,10.761.772-9.338,1.808-12.77,3.717-15.422,8.508,2.086.554,2.866-1.334,4.071-2.2,7.055-5.084,16.827-5.219,23.132-.131,1.384,1.118,3.158,2.238,2.287,4.464-.725,1.854-2.449,1.965-4.171,1.963-9.8-.014-19.611-.074-29.415.029-3.248.033-4.587-1.253-4.2-4.47.46-3.763.731-7.552,1.294-11.3.357-2.384,1.3-4.264,4.33-4.5a5.738,5.738,0,0,0,4.553-2.759c1.66-3.175,4.387-2.955,7.229-2.907,2.505.043,3.461,1.235,3.61,3.692.173,2.836-1.7,2.207-3.254,2.275-1.807.078-3.48.455-4.693,2.253" fill="#fff"/><path d="M349.949,45.985c-1.734-5.4,1.477-8.414,7.354-7.132.149.032.27.28.4.276,1.982-.052,4.858-1.308,5.65.742a13.149,13.149,0,0,1-.093,8.763c-1.416,4.211-2.838,8.422-4.088,12.684a2.981,2.981,0,0,1-2.07,2.375c-4.655,1.6-9.267,3.323-14.347,5.163.37-4.269-.3-7.992.83-11.732.6-1.989.9-4.3-.343-6.258-2.04-3.211.576-4.87,2.31-6.513,2.29-2.17,2.163,2.264,4.4,1.632" fill="#fdfdfd"/><path d="M400.69,47.77c-13.055,4.8-24.759,9.1-36.467,13.4-3.279,1.2-2.813-.912-2.218-2.708,1.789-5.4,4.407-10.56,3.884-16.539-.236-2.7,2.069-1.672,3.151-1.433,10.131,2.238,20.228,4.631,31.65,7.284" fill="#feffff"/><path d="M143.342,430.9c-.261,6.559-3.88,12.872-10.119,17.684-1.4,1.08-3.122,2.563-5.36,1.162-2.332-1.461-2.117-3.57-1.6-5.691,1.683-6.942,3.613-13.827,5.147-20.8.891-4.048,4.077-4.209,6.992-4.638,3.255-.479,3.141,2.465,4.061,4.49.955,2.1.686,4.19.881,7.793" fill="#fefdfd"/><path d="M154.942,424.353c-.816,2.787-.676,5.6-1.674,8.283-.491,1.319-1.187,2.166-2.47,1.721-1.225-.425-.662-1.761-.464-2.6.664-2.8,1.872-5.582-.773-8.633-1.208,4.444.3,9.319-4.4,13.009.289-6.47.571-12.171-2.133-17.5-.877-1.728,1.382-1.387,1.975-1.549,4.435-1.206,8.974-2.026,13.414-3.218,2.15-.577,2.114.554,2.236,1.99a14.274,14.274,0,0,0,3.552,8.5c1.368,1.558-.353,9.824-2.17,10.754a6.668,6.668,0,0,1-5.8-.17c-2.3-1.029-.688-2.827-.425-4.279.4-2.194.9-4.358-.865-6.313" fill="#fafcfc"/><path d="M339.82,256.543c2.878,1.911,3.4,3.588,2.326,6.753-7.875,23.255,6.283,41.739,31.13,40.743,3.539-.142,2.539,2.7,4.284,3.971-13.472,2.8-29.139-3.536-36.7-14.99-7.789-11.8-6.028-24.008-1.039-36.477" fill="#f6f6f7"/><path d="M168.419,56.15c-4.523-1.879-6.241-4.915-5.156-11.294q2.931-17.232,6.111-34.422c1.093-5.914,4.2-8.381,8.841-8.447-6.533,17.255-9.469,35.407-9.8,54.163" fill="#faf9fa"/><path d="M321.421,75.749q8.547-11.225,17.114-22.434c.636-.827,1.03-2.414,2.511-1.842,1.4.54.876,2.04.8,3.084-.319,4.276-.762,8.542-1.233,12.8a3.5,3.5,0,0,1-2.535,3.265c-5.4,1.854-10.748,3.89-16.115,5.856l-.54-.731" fill="#fafcfc"/><path d="M61.563,430.424a6.514,6.514,0,0,0-1.081-7.784,9.091,9.091,0,0,1-2-3.335c-1.584-5.46,2.416-9.724,8.269-9.035a1.562,1.562,0,0,1,1.616,1.388c1.281,5.048,2.673,10.067,3.967,15.113.34,1.329-.3,2.511-1.636,2.541-3.06.069-5.868,2.057-9.136,1.112" fill="#fdfefe"/><path d="M173.419,410.732c0,5.247.056,9.848-.04,14.445-.024,1.131.788,2.919-1.225,3.176-1.607.206-4.254.219-4.5-1.072-.706-3.686-3.946-5.874-4.694-9.556-.726-3.566-.243-5.313,3.638-5.6a56.486,56.486,0,0,0,6.821-1.389" fill="#fafcfc"/><path d="M249.5,306.291q-4.164-8.962-8.338-17.945c4.222-1.619,6.111-.283,6.594,3.9.538,4.648,1.5,9.248,2.281,13.869l-.537.177" fill="#efeced"/><path d="M353.275,24.143c1.958,1.181,5.336,9.952,4.362,11.456-.637.984-1.776.769-2.732.744-.609-.016-1.737.493-1.482-1.045.615-3.715-1.726-7.407-.148-11.155" fill="#f0efed"/><path d="M346.993,39.023c2-4.154-.253-7.344-1.093-10.754-.226-.921-1.228-2.341.658-2.768,1.328-.3,1.531,1.007,1.944,1.8a40.148,40.148,0,0,1,2.229,4.874c1.163,3.2.9,5.866-3.738,6.852" fill="#ebe9e9"/><path d="M333.483,38.359a14.766,14.766,0,0,1,9.124,2.973c3.338,2.553-1.708,3.241-1.585,5.923l-7.539-8.9" fill="#f0efed"/><path d="M362.922,31.511a26.1,26.1,0,0,1,.173,2.7c-.039.966,1.112,2.538-.914,2.637-1.341.066-2.634-.415-2.365-2.313.115-.809-.1-1.672.053-2.467.416-2.139-1.036-6.007,1.392-6.055,3-.059.9,3.768,1.661,5.495" fill="#f3f1f0"/><path d="M162.334,162.491a90.721,90.721,0,0,1,15.5-.04l.045,1.259H162.323q.006-.611.011-1.219" fill="#bab7b7"/><path d="M410.142,261.867c-1.8-3.61-1.478-7.148-2.516-10.687,4.462,2.781,5.085,5.316,2.516,10.687" fill="#e2e0e0"/><path d="M169.544,291.564a20.336,20.336,0,0,1,7.583-9.513c-2.112,3.521-3.106,7.98-7.583,9.513" fill="#e2e0de"/><path d="M537.73,325.349c-6.675-11.514-12.79-22.05-18.89-32.592-3.81-6.584-7.3-7.855-13.626-3.556-4.634,3.147-6.553,1.848-8.559-2.586-1.7-3.752-4.035-7.217-6.108-10.8-4.324-7.467-8.56-8.624-15.955-4.375-12.038,6.915-24.075,13.831-36.943,21.225,3.265-12.282,6.508-23.707,9.321-35.24,4.226-17.32,7.416-16.032,21.7-12.174q36.717,9.909,73.478,19.659c7.819,2.091,10.231,6.166,8.137,13.96-4.06,15.111-8.161,30.211-12.559,46.477" fill="#fff"/><path d="M430.617,319c1.2-4.6,2.559-10.218,4.172-15.757.826-2.834,2.812-.723,4.043-.4,21.668,5.71,43.3,11.543,64.951,17.333q14.533,3.887,29.083,7.714c2.613.689,4.392,1.382,2.926,4.93-1.555,3.765-2.062,7.949-3.254,11.882-1.713,5.649-5.855,8.109-11.413,6.626-27.644-7.377-55.254-14.878-82.9-22.249-4.775-1.273-7.46-3.973-7.609-10.08" fill="#fefefe"/><path d="M535.406,326.4c-5.456-1.325-10.533-2.491-15.569-3.816a6.854,6.854,0,0,1-4.416-3.518c-4.163-7.491-8.425-14.931-12.845-22.274-1.324-2.2-1.054-3.187,1.121-4.567,7.993-5.067,9.883-4.664,14.669,3.685q8.475,14.787,16.984,29.552c.073.128.025.327.056.938" fill="#fefdfd"/><path d="M61.463,217.839c.108,2.055-.038,3.156-2.823,3.341A62.527,62.527,0,0,0,27.676,232.2c-2.759,1.857-3.847,1.337-5.329-.871-3.916-5.833-5.218-12.738-7.8-19.115-.74-1.826.871-1.968,2.277-2.247A131.37,131.37,0,0,0,51.714,197.5c.993-.513,2.583-2.116,3.218-.192,2.253,6.822,5.531,13.335,6.531,20.528" fill="#fefefe"/><path d="M44.5,294.872c-2.4-6.546-4.777-12.844-7.01-19.193a14.386,14.386,0,0,1,.667-11.023c2.209-4.945,4.363-9.933,6.18-15.03,1.23-3.448,2.589-2.888,4.768-.977a11.24,11.24,0,0,1,3.306,4.84c1.364,3.873,2.459,7.866,4.128,11.6,3.884,8.7,1.114,15.629-5.024,22.02-2.269,2.362-3.9,5.322-7.015,7.76" fill="#fefefe"/><path d="M53.844,244.366c6.188,3.259,12.355,6.33,18.336,9.729a14.337,14.337,0,0,1,6.184,8.068c1.79,5.058,3.524,10.141,5.529,15.114,1.157,2.871.516,3.765-2.55,3.708-4.1-.075-7.337-2.557-11.031-3.72-2.037-.642-3.789-2.3-6.222-2.589a4.6,4.6,0,0,1-3.772-3.471c-2.281-6.812-4.651-13.6-7.173-20.323-.85-2.266-.471-4.158.7-6.516" fill="#fefefe"/><path d="M53.145,180.747c2.072.658,4.374-.729,4.959,1.24.5,1.684-1.561,2.757-2.883,3.6A110.007,110.007,0,0,1,6.308,203.017c-1.265.127-3.252.947-3.847-1.027-.429-1.423.92-2.31,2.037-3.066C19.41,188.833,36.02,183.4,53.145,180.747" fill="#feffff"/><path d="M3.308,205.567c19.876-2,37.985-8.117,54.308-19.284.726-.5,1.426-1.838,2.342-.444a2.886,2.886,0,0,1-.148,3.705,29.46,29.46,0,0,1-5.146,3.869,119.546,119.546,0,0,1-42.692,15.331c-2.922.47-7.527,2.468-8.664-3.177" fill="#f6f6f7"/><path d="M95.826,286.014c2.774,3.7.134,5.323-2.178,6.911-9.5,6.526-20.176,10.46-31.09,13.817a68.433,68.433,0,0,1-15.978,3.289c-1.153.068-2.313,0-3.469.034-1.794.05-2.986-.9-2.983-2.571,0-2.226,1.952-1.176,3.037-1.289,17.933-1.873,34.335-8.025,49.52-17.6a31.188,31.188,0,0,0,3.141-2.6" fill="#f6f5f5"/><path d="M42.515,304.4c-1.363.137-2.953.032-3.669-1.03-.749-1.112.516-2.124,1.429-2.729,1.115-.738,2.146-2.8,3.734-1.306,3.37,3.168,7.312,1.753,10.736,1.094A84.931,84.931,0,0,0,82,290.269c2.738-1.615,6.041-2.943,6.345-6.951.162-2.138,1.946-1.256,3.1-1.4s2.642-.14,3.105,1.026c.566,1.426-.731,2.309-1.791,3.09-9.589,7.07-20.592,11.12-31.784,14.7a76.192,76.192,0,0,1-18.46,3.67" fill="#e3e1e1"/><path d="M458.865,206.98c-2.419-.209-4.455-2.045-4.3-5.3.186-4.038,3.036-5.731,6.782-5.527,2.288.125,5.27-.075,5.254,3.654a7.6,7.6,0,0,1-7.731,7.169" fill="#f8f7f8"/><path d="M446.631,75.193c3.234-.5,3.917,2.055,4.688,4.148q8.685,23.592,17.214,47.243,2.421,6.672,4.763,13.372c1.188,3.389.251,5.62-3.336,6.886q-17.051,6.02-34,12.337c-3.664,1.371-5.853.746-7.247-3.151Q417.7,125.242,406.4,94.56c-1.161-3.138-.176-4.922,2.473-5.912,11.9-4.45,23.86-8.755,35.8-13.091a11.846,11.846,0,0,1,1.954-.364" fill="#20332c"/><path d="M415.965,145.553c.048,2.268-1.075,3.817-3.4,4.662q-18.393,6.671-36.755,13.424c-3.466,1.267-5.6-.564-6.655-3.442-5.7-15.514-11.211-31.1-16.84-46.637-1.142-3.154-.035-5.206,2.893-6.294q18.555-6.893,37.163-13.644c2.819-1.027,5.107.07,6.077,2.686,5.867,15.827,11.573,31.714,17.315,47.588a8.161,8.161,0,0,1,.207,1.657" fill="#111"/><path d="M360.144,156.612a4.485,4.485,0,0,1-3.189,4.562c-12.394,4.527-24.75,9.159-37.171,13.612-3,1.073-5.158-.358-6.245-3.3-4.772-12.937-9.564-25.866-14.265-38.828-1.131-3.119.516-5.275,3.283-6.3,12.218-4.508,24.5-8.849,36.742-13.287,3.1-1.122,5.444.08,6.468,2.8,4.8,12.728,9.36,25.544,13.976,38.34a13,13,0,0,1,.4,2.4" fill="#111"/><path d="M299.707,121.5c-3.008-.08-5.1-1.437-5.731-4.461-.736-3.536.474-6.271,3.954-7.572,7.88-2.944,15.8-5.773,23.714-8.638a92.8,92.8,0,0,1,9.812-3.421c3.314-.792,6.208.072,7.607,3.767,1.43,3.778-.392,6.5-3.422,7.675-11.23,4.367-22.624,8.31-33.967,12.384a9.186,9.186,0,0,1-1.967.266" fill="#151515"/><path d="M364.021,95.469c-.254,5.208-6,4.885-9.883,6.692-3.357,1.564-7.177,2.745-9.956-.847-2.283-2.951-2.259-6.394,1.191-8.605a29,29,0,0,1,11.926-4.4c4.151-.531,6.684,1.962,6.722,7.164" fill="#171717"/><path d="M430.9,70.871c-.222,2.9-2.438,4.959-5.908,5.306-3.4.339-6.519-3.281-6.251-6.816.289-3.815,2.829-5.532,6.234-5.79,3.425-.259,6.067,2.867,5.925,7.3" fill="#1b1a1a"/><path d="M439.461,58.182c4.265.068,7.542,3.185,7.06,6.357-.551,3.628-2.674,5.994-6.7,5.838a5.608,5.608,0,0,1-5.8-6.078c.059-3.591,2.24-6.117,5.436-6.117" fill="#1c1c1c"/><path d="M235.724,68.38c1.113.28,2.763-.837,3.319,1.032a4,4,0,0,1-1.053,3.647c-3.013,3.88-9.605,4.394-12.669.976a4.132,4.132,0,0,1-1.217-3.6c.356-2.022,2.063-1.176,3.189-1.317,2.783-.349,5.59-.5,8.431-.736" fill="#1e1e1e"/><path d="M251.97,77.494a29.517,29.517,0,0,1,7.756-5.288c-1.665,6.276-2.718,7.018-7.756,5.288" fill="#202020"/><path d="M242.049,57.3a1.862,1.862,0,0,1,1.73,2.036,1.951,1.951,0,0,1-2.4,1.885,1.875,1.875,0,0,1-1.407-2.3,1.708,1.708,0,0,1,2.074-1.619" fill="#20332c"/><path d="M188.863,47.555c.741-3.494,1.4-7.008,2.25-10.475a3.354,3.354,0,0,1,4.538-2.612,3.99,3.99,0,0,1,3.076,4.846c-.462,3.056-1.029,6.1-1.6,9.137-.471,2.525-1.689,4.291-4.6,4.032-3.043-.271-3.758-2.205-3.669-4.928" fill="#20332c"/><path d="M206.669,36.173c3.235.625,6.479,1.2,9.7,1.89,2.617.556,3.512,2.357,2.964,4.827-.519,2.34-2.321,3.235-4.5,2.97-3.117-.378-6.213-.975-9.287-1.623-2.369-.5-4.717-1.4-4.353-4.426.375-3.113,2.643-3.887,5.472-3.638" fill="#20332c"/><path d="M208.83,15.368c2.8.128,4.306,1.735,4.032,4.411-.347,3.387-1.15,6.73-1.785,10.086-.464,2.451-1.957,3.83-4.469,3.621-2.606-.217-3.806-1.92-3.444-4.429.537-3.711,1.228-7.4,1.993-11.076.386-1.849,1.729-2.71,3.673-2.613" fill="#20332c"/><path d="M194.206,31.5c-2.308-.474-5.7-1.14-9.074-1.875-2.358-.514-3.233-2.145-2.935-4.413.322-2.456,2.133-3.368,4.257-3.158,3.438.34,6.856.96,10.249,1.634,2.638.524,3.916,2.167,3.484,4.992-.462,3.021-2.65,2.9-5.981,2.82" fill="#20332c"/><path d="M185.256,32.327c1.034.7,3.771-.569,3.295,2.506-.4,2.573-.689,5.478-4.287,5.494a3.747,3.747,0,0,1-3.985-4.089c.064-2.72,2.046-3.893,4.977-3.911" fill="#20332c"/><path d="M201.6,46.171c3,.345,5.376.935,5.52,4.186.116,2.614-1.26,3.95-3.837,4.034-2.693.089-3.93-1.675-4.047-3.951-.092-1.792.078-3.982,2.364-4.269" fill="#20332c"/><path d="M202.13,18.648c-.205,1.068.864,3.195-2.14,2.909-2.9-.277-5.433-1.046-5.522-4.362-.067-2.47,1.692-3.967,4.219-3.784,2.955.214,3.746,2.268,3.443,5.237" fill="#20332c"/><path d="M217.483,35.4c-2.68-.138-4.618-.06-4.379-2.825.233-2.689,1.286-4.88,4.2-5.05,2.469-.144,3.91,1.437,3.88,3.987-.034,2.964-1.956,3.844-3.7,3.888" fill="#20332c"/><path d="M430.788,48.484c-1.664,0-2.222-.8-2.11-2.181.09-1.1.607-1.88,1.763-1.939a1.957,1.957,0,0,1,2.257,2,1.87,1.87,0,0,1-1.91,2.12" fill="#20332c"/><path d="M440.4,43.577a2.283,2.283,0,0,1-2.1,2.292,2.135,2.135,0,0,1-2.259-2.1,2.245,2.245,0,0,1,2.052-2.334c1.412-.084,1.848,1.088,2.309,2.142" fill="#20332c"/><path d="M424.8,49.586c0,1.158-.483,1.84-1.733,1.773-1.291-.07-2.25-.677-2.242-2.01a2.014,2.014,0,0,1,2.217-2.043c1.587-.043,1.782,1.051,1.758,2.28" fill="#131313"/><path d="M395.529,258.9c6.548,3.205,8.462,7.6,4,12.087,2.893-6.157-2.908-7.893-4-12.087" fill="#161717"/><path d="M383.659,270.861c2.845,2.731,5.236,6,9.917,5.742-5.269,2.108-8.328.28-9.917-5.742" fill="#20332c"/><path d="M394.252,248.52c1.3-4.928,4.285-5.768,8.7-2.793-3.191.535-6.643-.519-8.7,2.793" fill="#20332c"/><path d="M385.833,251.945c-4.289-.14-7.253-.169-9.713,2.579.932-4.846,3.689-5.743,9.713-2.579" fill="#141414"/><path d="M385.69,257.77a1.99,1.99,0,0,1-1.8,1.947,1.744,1.744,0,0,1-1.938-1.725,1.79,1.79,0,0,1,1.715-1.968c1.143-.134,1.637.8,2.027,1.746" fill="#20332c"/><path d="M400.458,251.8c1.353.075,2.164.748,2.094,1.491a1.836,1.836,0,0,1-2.044,1.68,1.647,1.647,0,0,1-1.653-1.538,1.5,1.5,0,0,1,1.6-1.633" fill="#212121"/><path d="M360.938,268.679c2.037-.83,3.539.081,4.929.62,1.035.4,3.22.079,2.862,1.882-.269,1.351-2.395,1.674-3.533,2.327-1.6.914-.63-1.232-.942-2.006-.487-1.205-2.738-.753-3.316-2.823" fill="#20332c"/><path d="M512.942,273.061c-.393,3.5-2.274,5.259-5.621,5.084-3.416-.18-5.091-2.245-4.81-5.59.257-3.065,2.073-4.769,5.243-4.711,3.469.067,4.961,2.108,5.188,5.217" fill="#1d1d1d"/><path d="M508.507,338.184a8.975,8.975,0,0,1,8.962-9.244,9.491,9.491,0,0,1,9.09,9.28c-.055,4.9-4.482,9.436-9.123,9.344a9.11,9.11,0,0,1-8.929-9.38" fill="#151515"/><path d="M441.071,309.329l41.745,11.265-.517,1.939L440.754,311.36q.159-1.015.317-2.031" fill="#1b1b1b"/><path d="M438.928,318.344c8.2.615,15.972,3.067,23.617,6.024-8.26-.389-15.9-3.29-23.617-6.024" fill="#1a1a1a"/><path d="M457.57,110.1c.1,2.29-1.3,2.725-2.76,3.258-9.58,3.51-19.132,7.1-28.72,10.583-1.978.719-3.683.886-4.614-1.918-1.914-5.762-4.21-11.4-6.367-17.08-.873-2.3-.217-3.747,2.159-4.59q14.659-5.2,29.264-10.548c1.367-.5,2.947-1,3.514.4,2.691,6.674,5.118,13.454,7.524,19.891" fill="#fefefe"/><path d="M410.919,95.189c7.368-4.308,15.439-6.767,23.662-8.826-7.319,4.438-15.453,6.731-23.662,8.826" fill="#d3d1d1"/><path d="M413.964,145.963c.184,1-.98,1.9-2.746,2.536-11.8,4.251-23.615,8.465-35.347,12.9-2.876,1.086-4.091-.177-4.91-2.406-5.6-15.25-11.113-30.532-16.73-45.775-.843-2.288.03-3.46,2.018-4.192q18.353-6.75,36.721-13.457c1.935-.7,3.129.2,3.81,2.063q8.391,22.9,16.807,45.794a18.549,18.549,0,0,1,.377,2.542" fill="#fefefe"/><path d="M358.048,156.41c.229,1.936-1.1,2.606-2.557,3.137-11.911,4.34-23.846,8.617-35.723,13.049-2.652.989-3.849-.364-4.578-2.337-4.655-12.6-9.186-25.256-13.818-37.868-.845-2.3.185-3.487,2.128-4.2,11.919-4.356,23.855-8.664,35.774-13.02,2.546-.93,3.9-.208,4.848,2.434,4.437,12.316,9.057,24.567,13.588,36.85a10.773,10.773,0,0,1,.338,1.953" fill="#feffff"/><path d="M300.085,119.365c-1.939-.021-3.644-.375-4.093-2.692-.526-2.717.579-4.457,3.127-5.383q9.752-3.543,19.5-7.1c4.335-1.583,8.624-3.311,13.014-4.724,2.117-.682,4.279-.552,5.366,2.078,1.036,2.508.069,4.52-2.083,5.334-11.23,4.248-22.549,8.261-33.841,12.344a5,5,0,0,1-.988.142" fill="#fdfefe"/><path d="M356.263,90.4c3.553-.347,5.011.6,5.544,2.589.5,1.867.246,3.854-1.733,4.664a104.635,104.635,0,0,1-10.632,3.68,3.417,3.417,0,0,1-4.344-2.34c-.642-1.838-.334-3.817,1.584-4.7,3.554-1.633,7.247-2.961,9.581-3.895" fill="#f7f8f8"/><path d="M425.029,74.074c-2.3-.353-4.152-1.319-4.237-3.926-.088-2.7,1.41-4.469,4.092-4.445,2.372.021,3.762,1.481,3.913,4.1.162,2.81-1.569,3.666-3.768,4.275" fill="#edeaea"/><path d="M440.105,60.292a3.819,3.819,0,0,1,4.253,3.84c.129,2.662-1.565,4.175-4.361,4.19a3.633,3.633,0,0,1-3.925-4.054c.084-2.107,1.208-4.153,4.033-3.976" fill="#ebeaea"/><path d="M236.857,70.407c-3.955,4.645-6.482,4.885-10.507,1.115l10.507-1.115" fill="#edebec"/><path d="M507.741,269.849c2.161.075,2.969,1.393,3,3.264.032,2.1-1.314,2.986-3.211,2.935a2.712,2.712,0,0,1-2.944-3.188,2.884,2.884,0,0,1,3.158-3.011" fill="#f5f5f4"/><path d="M517.3,331.023c5.1.159,8.608,5.249,6.821,9.518-.366.875-.549,2.672-2.17,1.913-.877-.411-1.956-1.382-1.118-2.834,1.615-2.8.73-5.005-2.18-5.8-2.956-.809-4.737.806-4.955,3.921a1.935,1.935,0,0,1-2.329,1.988c-1.548-.346-.91-1.987-.723-2.894.768-3.729,3.355-5.48,6.654-5.81" fill="#e7e6e6"/><path d="M520.117,344.485a11.951,11.951,0,0,1-1.881.382c-2.12.069-4.3.19-5.63-1.964-.456-.74.1-1.225.7-1.493,2.424-1.083,4.387-.144,6.108,1.546a5.679,5.679,0,0,1,.707,1.529" fill="#dad9d9"/><path d="M517.884,339.186c-1.034-.061-1.98-.326-2.151-1.493a1.565,1.565,0,0,1,1.5-2.023c1.178-.1,2.3-.094,2.366,1.575.053,1.258-.782,1.613-1.715,1.941" fill="#c6c5c3"/><path d="M420.8,105.9a74.674,74.674,0,0,1,22.821-8.249A78.973,78.973,0,0,1,420.8,105.9" fill="#222"/><path d="M422.9,111.745a30.77,30.77,0,0,1,13.668-5.173c-3.917,3.447-8.793,4.387-13.668,5.173" fill="#222"/><path d="M395.532,107.337a4.07,4.07,0,0,1,3.327,3.086c2.117,6.027,4.366,12.007,6.542,18.014.911,2.517.025,4.017-2.524,4.929-9.952,3.561-19.865,7.228-29.786,10.875-2.648.973-4.335.38-5.332-2.49-2.1-6.039-4.451-11.99-6.636-18-.7-1.924-.4-3.79,1.692-4.573,10.52-3.931,21.08-7.756,31.629-11.611a8.532,8.532,0,0,1,1.088-.231" fill="#121212"/><path d="M382.129,106.354c-7.766,3.487-15.84,6.153-23.877,8.917l-.648-1.734,23.909-8.83.616,1.647" fill="#20332c"/><path d="M352.865,148.7c.048,2.657-1.644,3.585-3.332,4.211-9.733,3.608-19.515,7.082-29.257,10.666-2.683.987-4.444.42-5.462-2.383-2.186-6.014-4.563-11.96-6.661-18-.9-2.583.164-4.31,2.934-5.293,9.627-3.417,19.173-7.062,28.78-10.534,3.112-1.125,5.245-.446,6.4,3.185,1.989,6.241,4.453,12.331,6.6,18.151" fill="#141414"/><path d="M328.863,124.795c-7.365,4.495-15.518,6.9-23.826,8.9,7.431-4.32,15.565-6.781,23.826-8.9" fill="#20332c"/><path d="M403.71,129.482c.091,1.821-1.4,1.912-2.35,2.266-9.407,3.5-18.869,6.851-28.263,10.384-2.359.887-3.35-.08-4.034-2.052-1.818-5.241-3.422-10.571-5.542-15.688-.988-2.386-.368-3.3,1.694-4.047,9.446-3.4,18.911-6.753,28.314-10.271,2.04-.763,3-.377,3.69,1.618,1.918,5.556,3.928,11.081,5.915,16.613a10.164,10.164,0,0,0,.576,1.177" fill="#fdfdfd"/><path d="M350.714,148.986c-.128,1.328-1.138,1.714-2.3,2.13-9.468,3.391-18.948,6.755-28.346,10.33-2.086.793-2.907.471-3.618-1.56-1.957-5.59-4.044-11.136-6.133-16.679-.671-1.782-.184-2.686,1.637-3.345,9.609-3.477,19.17-7.089,28.782-10.558.946-.342,2.488-.9,3.047.586,2.371,6.312,4.611,12.674,6.928,19.1" fill="#fefdfd"/><path d="M391.094,117.759l-22.787,8.3c-.2-.515-.4-1.03-.6-1.545,7.244-3.557,15.026-5.767,22.565-8.586l.826,1.83" fill="#1d1d1d"/><path d="M370.137,130.841a29.891,29.891,0,0,1,13.623-5.024,25.7,25.7,0,0,1-13.623,5.024" fill="#1b1a1a"/><path d="M337.7,136.069c-7.073,4.212-14.831,6.578-22.759,8.482,7.041-4.3,14.779-6.718,22.759-8.482" fill="#252524"/><path d="M317.172,150.431c3.923-3.232,8.661-4.6,13.618-5.452-3.79,3.513-8.848,4.112-13.618,5.452" fill="#20332c"/></g></svg>